<svg width="36" height="36" viewBox="0 0 36 36" fill="none" xmlns="http://www.w3.org/2000/svg">
<path fill-rule="evenodd" clip-rule="evenodd" d="M34.3661 6.33317C34.3661 5.04395 32.6963 4.58537 31.5917 4.282C31.4902 4.25413 31.3935 4.22756 31.3032 4.20179C29.9236 3.8076 27.9643 3.4165 25.6161 3.4165C23.1023 3.4165 21.0295 4.25359 19.6062 5.06699C19.3885 5.1914 19.1595 5.36326 18.9526 5.51859C18.6793 5.72381 18.4445 5.90016 18.3245 5.90016C18.2045 5.90016 17.9697 5.72381 17.6964 5.51859C17.4894 5.36326 17.2605 5.1914 17.0427 5.06699C15.6194 4.25359 13.5467 3.4165 11.0328 3.4165C8.68457 3.4165 6.72533 3.8076 5.34571 4.20179C5.25896 4.22656 5.166 4.25216 5.06846 4.27902C3.96864 4.58187 2.28281 5.04607 2.28281 6.33317V25.2915C2.28281 25.797 2.5445 26.2663 2.97445 26.5321C3.65844 26.9547 4.56107 26.5848 5.36097 26.2569C5.64002 26.1424 5.90657 26.0332 6.14698 25.9645C7.31945 25.6295 9.00604 25.2915 11.0328 25.2915C12.8722 25.2915 14.2492 25.8983 15.2815 26.5336C15.5466 26.6968 15.8147 26.9049 16.0897 27.1184C16.7696 27.6464 17.4929 28.2082 18.3245 28.2082C19.1583 28.2082 19.878 27.6485 20.5567 27.1207C20.8321 26.9065 21.1007 26.6976 21.3674 26.5336C22.3998 25.8983 23.7767 25.2915 25.6161 25.2915C27.6429 25.2915 29.3295 25.6295 30.502 25.9645C30.7534 26.0364 31.0264 26.1516 31.3098 26.2714C32.0974 26.604 32.9651 26.9705 33.6744 26.5321C34.1044 26.2663 34.3661 25.797 34.3661 25.2915V6.33317ZM5.6844 7.14618C5.39143 7.23968 5.19947 7.51556 5.19947 7.82309V22.2277C5.19947 22.7146 5.66744 23.0651 6.14078 22.951C7.43914 22.6384 9.10455 22.3748 11.0328 22.3748C13.604 22.3748 15.5236 23.249 16.8661 24.0841V8.45602C16.5729 8.22307 16.1424 7.91174 15.5958 7.59935C14.4671 6.95442 12.894 6.33317 11.0328 6.33317C8.72148 6.33317 6.84723 6.775 5.6844 7.14618ZM25.6161 22.3748C23.045 22.3748 21.1253 23.249 19.7828 24.0841V8.45602C20.0761 8.22307 20.5066 7.91174 21.0532 7.59935C22.1819 6.95442 23.755 6.33317 25.6161 6.33317C27.9275 6.33317 29.8017 6.775 30.9646 7.14618C31.2576 7.23968 31.4495 7.51556 31.4495 7.82309V22.2277C31.4495 22.7146 30.9815 23.0651 30.5081 22.951C29.2098 22.6384 27.5443 22.3748 25.6161 22.3748Z" fill="#F6C543"/>
<path d="M3.86853 30.2627C3.53932 29.5277 3.86835 28.6649 4.60341 28.3356C5.28626 28.0322 5.99319 27.7771 6.70418 27.5489C7.8838 27.1704 9.51484 26.75 11.0328 26.75C12.7345 26.75 14.187 27.6671 15.2396 28.3319C15.2937 28.366 15.3467 28.3994 15.3986 28.432C16.6251 29.2031 17.4501 29.6667 18.3245 29.6667C19.1979 29.6667 20.0179 29.2042 21.2429 28.4326C21.2932 28.401 21.3444 28.3686 21.3966 28.3355C22.4502 27.6692 23.9036 26.75 25.6161 26.75C27.1423 26.75 28.773 27.1701 29.9521 27.5492C31.0108 27.8895 31.7963 28.2261 31.9981 28.3148C32.736 28.6412 33.1182 29.5125 32.7792 30.2653C32.4509 30.9946 31.5747 31.3182 30.8478 30.9951C30.2657 30.7384 29.6646 30.5205 29.0593 30.3258C27.9702 29.9757 26.6842 29.6667 25.6161 29.6667C24.8008 29.6667 24.0174 30.1313 22.7095 30.956C21.6254 31.6396 20.1289 32.5833 18.3245 32.5833C16.5189 32.5833 15.0175 31.6385 13.9303 30.9542C12.6198 30.1294 11.8382 29.6667 11.0328 29.6667C9.97374 29.6667 8.68813 29.9754 7.59533 30.3261C6.98649 30.5214 6.38034 30.7387 5.7952 30.9978C5.0602 31.3267 4.19767 30.9977 3.86853 30.2627Z" fill="#F6C543"/>
</svg>
