<svg width="41" height="40" viewBox="0 0 41 40" fill="none" xmlns="http://www.w3.org/2000/svg">
<path fill-rule="evenodd" clip-rule="evenodd" d="M13.6578 16.6665C13.6578 12.9846 16.6426 9.99984 20.3245 9.99984C24.0063 9.99984 26.9911 12.9846 26.9911 16.6665V18.3332H28.6578C31.8795 18.3332 34.4911 20.9448 34.4911 24.1665C34.4911 27.3882 31.8795 29.9998 28.6578 29.9998H28.4911C27.5706 29.9998 26.8245 30.746 26.8245 31.6665C26.8245 32.587 27.5706 33.3332 28.4911 33.3332H28.6578C33.7205 33.3332 37.8245 29.2292 37.8245 24.1665C37.8245 19.632 34.532 15.8665 30.2071 15.1302C29.4681 10.3367 25.325 6.6665 20.3245 6.6665C15.324 6.6665 11.1808 10.3367 10.4417 15.1302C6.11698 15.8665 2.82446 19.632 2.82446 24.1665C2.82446 29.2292 6.92851 33.3332 11.9911 33.3332H12.1578C13.0783 33.3332 13.8245 32.587 13.8245 31.6665C13.8245 30.746 13.0783 29.9998 12.1578 29.9998H11.9911C8.76946 29.9998 6.1578 27.3882 6.1578 24.1665C6.1578 20.9448 8.76946 18.3332 11.9911 18.3332H13.6578V16.6665ZM21.9911 18.3332C21.9911 17.4127 21.245 16.6665 20.3245 16.6665C19.404 16.6665 18.6578 17.4127 18.6578 18.3332V27.6428L16.503 25.488C15.8521 24.8372 14.7968 24.8372 14.1459 25.488C13.4951 26.1388 13.4951 27.1942 14.1459 27.845L19.146 32.845C19.7968 33.4958 20.8521 33.4958 21.503 32.845L26.503 27.845C27.1538 27.1942 27.1538 26.1388 26.503 25.488C25.8521 24.8372 24.7968 24.8372 24.146 25.488L21.9911 27.6428V18.3332Z" fill="#F5772D"/>
</svg>
