<svg width="60" height="60" viewBox="0 0 60 60" fill="none" xmlns="http://www.w3.org/2000/svg">
<path fill-rule="evenodd" clip-rule="evenodd" d="M18.5714 24.1429C18.5714 17.831 23.6882 12.7143 30 12.7143C36.3117 12.7143 41.4286 17.831 41.4286 24.1429V27H44.2857C49.8086 27 54.2857 31.4771 54.2857 37C54.2857 42.5229 49.8086 47 44.2857 47H44C42.422 47 41.1429 48.2791 41.1429 49.8571C41.1429 51.4351 42.422 52.7143 44 52.7143H44.2857C52.9646 52.7143 60 45.6789 60 37C60 29.2266 54.3557 22.7713 46.9417 21.5093C45.6749 13.2918 38.5723 7 30 7C21.4278 7 14.3252 13.2918 13.0582 21.5093C5.64431 22.7713 0 29.2266 0 37C0 45.6789 7.03551 52.7143 15.7143 52.7143H16C17.5779 52.7143 18.8571 51.4351 18.8571 49.8571C18.8571 48.2791 17.5779 47 16 47H15.7143C10.1914 47 5.71429 42.5229 5.71429 37C5.71429 31.4771 10.1914 27 15.7143 27H18.5714V24.1429ZM32.8571 27C32.8571 25.422 31.578 24.1429 30 24.1429C28.422 24.1429 27.1429 25.422 27.1429 27V42.9594L23.4489 39.2654C22.3331 38.1497 20.5241 38.1497 19.4083 39.2654C18.2925 40.3811 18.2925 42.1903 19.4083 43.306L27.9797 51.8774C29.0954 52.9931 30.9046 52.9931 32.0203 51.8774L40.5917 43.306C41.7074 42.1903 41.7074 40.3811 40.5917 39.2654C39.476 38.1497 37.6669 38.1497 36.5511 39.2654L32.8571 42.9594V27Z" fill="#F5772D"/>
</svg>
