<svg width="180" height="36" viewBox="0 0 180 36" fill="none" xmlns="http://www.w3.org/2000/svg">
<path d="M73.5848 3.14836C74.0508 2.81203 74.5526 2.52375 75.1261 2.81203C76.1177 3.3045 77.0497 3.58075 77.9219 2.58379C78.0414 2.43965 78.3759 2.37962 78.579 2.42766C79.2959 2.5718 79.8933 2.36758 80.5743 2.10333C81.0762 1.91114 81.7811 1.89914 82.3904 1.83908C85.3774 1.57482 88.2808 0.565851 91.3514 1.05833C92.4984 1.2385 93.7171 1.04631 94.9 0.902169C96.4054 0.721996 97.887 0.541834 99.4044 0.794077C99.7031 0.842123 100.062 0.842123 100.336 0.734019C101.901 0.0733826 103.467 0.505811 105.032 0.685984C105.952 0.794089 106.872 1.16644 107.732 0.373672C107.959 0.157464 108.485 0.229521 108.879 0.241533C111.101 0.349637 113.312 0.505805 115.522 0.589886C116.227 0.613909 117.016 0.637915 117.637 0.361649C118.736 -0.142837 119.823 -0.0226982 120.899 0.145464C122.225 0.361672 123.527 0.289597 124.854 0.169481C126.18 0.0373538 127.542 -0.0227158 128.832 0.517805C129.262 0.697978 129.764 0.734013 130.218 0.878152C131.461 1.26252 132.691 1.38264 133.922 0.734019C134.364 1.0223 134.735 1.33461 135.153 1.52679C135.714 1.79105 136.348 2.19944 136.909 2.12737C137.996 2.00726 138.94 2.18742 139.872 2.69191C140.649 3.12433 141.533 3.04024 142.13 2.53575C143.23 1.59885 144.353 1.87511 145.5 2.13937C147.364 2.57178 149.251 2.66788 151.139 2.71593C151.772 2.72794 152.37 2.66787 152.979 2.94414C153.481 3.16034 154.054 3.30449 154.592 3.31651C156.038 3.35254 157.161 3.98915 158.153 4.96209C158.165 5.19031 158.212 5.43054 158.188 5.65876C158.117 6.36744 158.463 6.65573 159.132 6.65573C159.431 7.12418 159.778 7.47251 160.459 7.22027C160.136 6.53561 159.503 6.88394 159.061 6.70376C158.75 6.12721 158.451 5.53866 158.153 4.95009C158.642 5.10624 159.097 5.64674 159.646 5.04616C160.291 4.3615 160.996 4.62576 161.558 5.10622C162.155 5.6107 162.633 6.25933 163.159 6.8479L163.219 6.77584C162.908 6.79987 162.609 6.82388 162.287 6.85992C162.287 7.32837 162.287 7.70073 162.287 8.12113C161.725 8.62562 161.116 8.2893 160.518 8.15718C159.216 7.85689 157.997 7.22025 156.564 7.44847C156.205 7.50853 155.751 6.85992 155.142 6.37946C154.867 6.37946 154.317 6.36744 153.78 6.37946C152.848 6.40348 149.705 5.65876 148.821 5.20232C148.678 5.13025 148.523 4.95007 148.427 4.9861C147.232 5.34645 146.073 4.95008 144.902 4.87801C144.675 4.866 144.4 4.91405 144.221 5.03417C142.023 6.46354 139.621 5.68277 137.303 5.64674C136.431 5.11823 135.439 5.38251 134.508 5.25038C132.942 5.03417 131.341 5.3825 129.788 4.87801C129.442 4.76991 128.988 4.84199 128.617 4.95009C126.933 5.44257 125.367 4.78191 123.635 4.68581C124.28 3.96512 124.28 3.96514 127.781 3.74893C126.968 3.43663 126.275 3.14836 125.582 2.90812C125.2 2.776 123.3 3.36455 122.751 3.70087C120.803 4.91404 118.7 5.41854 116.418 5.03417C115.952 4.95009 115.451 4.866 115.044 4.63778C113.981 4.02519 112.882 4.1333 111.818 4.46963C111.03 4.72187 110.289 4.76991 109.477 4.63778C108.616 4.49364 107.744 4.43357 106.896 4.80593C106.621 4.92604 106.251 5.03415 105.964 4.96209C103.741 4.38553 101.531 5.01014 99.3566 5.1783C96.4532 5.39451 93.526 5.46658 90.6465 6.11521C89.1171 6.46354 87.4803 6.40349 85.9031 6.39148C83.9078 6.37947 81.9364 6.42749 80.0128 7.02807C79.5588 7.17221 79.0689 7.28031 78.6029 7.2683C75.2336 7.1602 72.0315 8.20522 68.7458 8.63764C67.097 8.85385 65.4362 9.13011 63.7755 9.20218C61.589 9.28626 59.6056 10.1871 57.5147 10.6315C55.6628 11.0279 53.8228 11.5444 51.9828 12.0129C51.2182 12.2051 50.4654 12.4333 49.7127 12.6255C49.175 12.7576 48.6015 13.0098 48.0997 12.9258C47.0005 12.7336 46.0686 13.0218 45.1605 13.5744C44.9574 13.6945 44.7543 13.8386 44.5273 13.9107C42.3527 14.6434 40.1782 15.3881 37.9917 16.0848C35.7336 16.8175 33.4634 17.4421 31.277 18.403C29.3175 19.2559 27.2385 19.8204 25.2432 20.6011C23.8453 21.1417 22.4833 21.8023 21.1331 22.4629C19.1378 23.4239 17.1425 24.4088 15.1591 25.4178C12.8293 26.6069 10.6786 28.0964 8.56384 29.6339C7.53631 30.3786 6.52074 31.1473 5.43348 31.7839C4.64491 32.2404 4.05945 32.8049 3.59348 33.5736C3.10362 34.3784 2.47037 35.1111 1.81323 36C1.43089 35.6997 1.01272 35.5435 0.881296 35.2553C-0.170126 33.0692 0.224157 32.0001 2.43453 29.5618C2.96025 28.9852 3.71296 28.6129 4.33425 28.1084C5.12282 27.4718 5.87554 26.8712 6.47294 25.9583C7.39294 24.541 9.01787 23.7962 10.5711 23.2317C11.8018 22.7873 12.8771 22.2347 13.821 21.3339C14.1674 21.0095 14.5498 20.6252 14.9799 20.5051C16.5212 20.0606 17.7996 19.0637 19.2453 18.4391C21.5752 17.4301 24.0245 16.7094 26.2349 15.4122C26.5575 15.22 27.0354 15.0518 27.358 15.1479C28.1944 15.3881 28.1107 14.4512 28.6484 14.2831C28.9829 14.3672 29.3653 14.4632 29.8552 14.5834C31.0858 13.2261 32.878 12.9978 34.5507 12.6375C36.2115 12.2771 37.7408 11.6886 39.2104 10.9078C39.2104 11.076 39.2224 11.2201 39.2224 11.3763C39.2104 11.2321 39.1985 11.088 39.1865 10.9318C39.4613 10.7637 39.7003 10.5114 39.999 10.4394C41.0624 10.1631 42.1974 10.079 43.2011 9.67062C44.1927 9.26222 45.1486 9.04602 46.2 9.16613C46.7854 9.2382 47.2753 9.08206 47.7174 8.66165C48.3984 8.02504 49.2945 7.78482 50.1548 7.89293C51.3376 8.03706 52.3413 7.61664 53.3688 7.24428C54.6472 6.78784 55.9018 6.30738 57.2758 6.2233C57.6701 6.19928 58.0763 6.1152 58.4347 5.95905C60.1433 5.25037 61.8757 4.72186 63.7516 4.87801C63.9786 4.90203 64.2534 4.86599 64.4446 4.74587C65.9381 3.82098 67.6347 4.01318 69.2596 3.85703C69.4986 3.833 69.7973 3.92911 69.9526 3.80899C71.0757 3.01623 72.39 3.44862 73.6087 3.18437C73.6923 3.16034 73.764 3.13634 73.8357 3.11232C73.8954 3.08829 73.9432 3.05226 74.003 3.02824C73.8715 3.04025 73.7282 3.10031 73.5848 3.14836ZM152.907 3.845C152.716 3.77293 152.453 3.55674 152.214 3.59278C151.677 3.66485 151.498 4.12129 151.545 4.61376C151.557 4.76991 151.808 5.02216 151.975 5.03417C152.501 5.08221 152.979 4.52966 152.907 3.845ZM132.715 4.18133C132.309 3.14834 131.819 3.17237 131.282 3.55674C131.114 3.67685 131.019 3.89306 130.816 4.18133C131.485 4.18133 132.01 4.18133 132.715 4.18133ZM117.876 2.07931C117.506 1.87511 117.291 1.67092 117.171 1.71896C116.98 1.77902 116.753 2.01925 116.729 2.19942C116.717 2.35558 117.04 2.6919 117.123 2.65587C117.362 2.57179 117.541 2.35558 117.876 2.07931ZM85.2221 2.18743C84.8876 2.09134 84.6844 1.97122 84.5052 2.00726C84.338 2.03128 84.2065 2.22346 84.0632 2.33156C84.2424 2.41564 84.4216 2.58381 84.6008 2.57179C84.7681 2.57179 84.9353 2.37962 85.2221 2.18743ZM141.629 4.15732C141.521 4.10927 141.413 4.03721 141.306 4.01318C141.258 4.00117 141.186 4.06122 141.127 4.09726C141.186 4.19335 141.27 4.37352 141.318 4.36151C141.425 4.33748 141.521 4.22939 141.629 4.15732ZM154.903 4.85399C154.915 4.78192 154.927 4.72187 154.939 4.6498C154.807 4.63779 154.688 4.61375 154.556 4.60174C154.544 4.67381 154.52 4.79394 154.532 4.79394C154.652 4.81796 154.771 4.84198 154.903 4.85399ZM138.403 3.38859C138.343 3.35255 138.295 3.3165 138.235 3.28047C138.211 3.34052 138.152 3.41261 138.176 3.44865C138.199 3.49669 138.283 3.5207 138.331 3.55674C138.355 3.50869 138.379 3.44865 138.403 3.38859ZM135.894 3.0883C135.834 3.0883 135.774 3.07628 135.714 3.07628C135.774 3.12432 135.822 3.18439 135.882 3.23243C135.882 3.18439 135.894 3.13634 135.894 3.0883ZM144.783 3.6168L144.616 3.5207L144.592 3.68888L144.783 3.6168ZM44.2883 10.2952L44.1449 10.3673L44.2883 10.4394V10.2952Z" fill="#F6C543"/>
<path d="M167.795 6.99205C168.344 8.04907 169.575 7.80881 170.841 8.46945C169.563 8.46945 168.727 8.49349 167.89 8.45746C166.946 8.42142 166.002 8.30129 165.071 8.26526C164.043 8.22923 163.469 7.70071 163.254 6.72777L163.195 6.79985C163.9 6.58365 164.605 6.60766 165.286 6.90795C166.122 7.26829 166.97 7.30433 167.842 7.02806L167.795 6.99205Z" fill="#F6C543"/>
<path d="M169.957 9.5385C171.343 9.5385 172.192 9.49045 173.016 9.56251C173.315 9.58654 173.589 9.93486 173.972 10.2111C172.335 10.6556 171.499 10.5475 169.957 9.5385Z" fill="#F6C543"/>
<path d="M179.324 11.112C177.795 11.5925 177.795 11.5925 177.078 10.3193C177.747 10.2352 177.747 10.2352 179.324 11.112Z" fill="#F6C543"/>
</svg>
