<svg width="60" height="74" viewBox="0 0 60 74" fill="none" xmlns="http://www.w3.org/2000/svg">
<g clip-path="url(#clip0_54_366)">
<path d="M60 36.9991L52.5816 30.9487L55.9799 22.001L46.5305 20.4694L44.9996 11.0199L36.0504 14.4192L30 7.00146L29.0787 8.13115L23.9482 14.4192L15.0012 11.0201L13.4688 20.4695L4.02094 22.0011L7.41855 30.9488L0 36.9991L7.41855 43.0502L4.02094 51.9988L13.4688 53.5311L15.0005 62.9798L23.9482 59.5814L30 66.9984L36.0504 59.5814L44.9996 62.9798L46.5305 53.5311L55.9807 51.9988L52.5816 43.0502L60 36.9991ZM52.7209 50.1173L44.4568 51.4576L43.1181 59.721L35.2916 56.7484L30 63.2361L24.7069 56.7483L16.8819 59.7208L15.5423 51.4575L7.2791 50.118L10.2507 42.2907L3.76383 36.9999L10.2509 31.7083L7.27922 23.8826L15.5425 22.5431L16.882 14.2797L24.707 17.2515L30 10.7646L35.2916 17.2516L43.1181 14.279L44.4568 22.5431L52.7209 23.8826L49.7491 31.7083L56.2362 36.9999L49.7491 42.2907L52.7209 50.1173Z" fill="#203864"/>
<path d="M19.4379 38.4665L15.8429 39.2701C15.7833 39.284 15.7477 39.2608 15.7344 39.2019L15.2629 37.0943C15.2497 37.0355 15.2721 36.9999 15.3318 36.9867L19.6492 36.0204C19.7367 36.0011 19.7823 35.9283 19.7631 35.8401L19.41 34.2635C19.3907 34.1753 19.3179 34.1296 19.2312 34.1489L12.806 35.586C12.7177 35.6061 12.6714 35.6789 12.6914 35.7672L14.8672 45.4923C14.8874 45.5806 14.9593 45.6256 15.0484 45.6054L16.9191 45.1873C17.0073 45.1672 17.053 45.096 17.0329 45.0077L16.1889 41.2354C16.1757 41.1765 16.1989 41.1401 16.2585 41.1269L19.8534 40.3225C19.9418 40.3031 19.9875 40.2304 19.9673 40.1421L19.6181 38.5802C19.5982 38.4919 19.5263 38.4463 19.4379 38.4665Z" fill="#203864"/>
<path d="M27.945 38.3888C28.9407 37.6547 29.3906 36.4864 29.1041 35.2049C28.6954 33.3775 27.0531 32.3989 25.0042 32.8573L21.012 33.7508C20.9237 33.7701 20.8772 33.8422 20.8973 33.9312L23.073 43.6556C23.0932 43.7438 23.1652 43.7895 23.2542 43.7702L25.125 43.3513C25.2132 43.3312 25.2589 43.2592 25.2388 43.171L24.4375 39.5906C24.425 39.5317 24.4475 39.4954 24.5072 39.4822L25.8475 39.1825L28.3925 42.4655C28.4591 42.5593 28.5141 42.5934 28.6465 42.5638L30.7393 42.0947C30.8423 42.0722 30.8655 41.9739 30.8029 41.8949L27.945 38.3888ZM25.8629 37.2452L24.0953 37.6409C24.0356 37.654 23.9993 37.6308 23.9861 37.5719L23.4688 35.2584C23.4557 35.1995 23.478 35.1638 23.5377 35.1507L25.3054 34.755C26.1307 34.57 26.7703 34.937 26.9384 35.6896C27.1096 36.4554 26.6884 37.0601 25.8629 37.2452Z" fill="#203864"/>
<path d="M38.4523 38.4046L34.1348 39.3709C34.0759 39.384 34.0403 39.3616 34.0263 39.302L33.5618 37.2246C33.5487 37.1658 33.571 37.13 33.6299 37.1162L37.2258 36.3125C37.314 36.2924 37.3605 36.2196 37.3404 36.1314L36.9912 34.5703C36.971 34.4813 36.8982 34.4356 36.81 34.4557L33.2149 35.2595C33.1561 35.2733 33.1205 35.2501 33.1065 35.1913L32.662 33.2022C32.6489 33.1433 32.6714 33.107 32.7302 33.0946L37.0477 32.1282C37.1351 32.1081 37.1809 32.0361 37.1614 31.9479L36.8084 30.3715C36.789 30.2824 36.7162 30.2375 36.6295 30.2569L30.2044 31.6939C30.1161 31.7141 30.0696 31.7861 30.0898 31.8743L32.2655 41.5995C32.2856 41.6877 32.3577 41.7334 32.4468 41.7132L38.871 40.2762C38.9585 40.2568 39.0042 40.1841 38.9841 40.0957L38.6317 38.5193C38.6118 38.4309 38.5397 38.3851 38.4523 38.4046Z" fill="#203864"/>
<path d="M46.7743 36.543L42.4576 37.5086C42.3988 37.5217 42.3625 37.4985 42.3492 37.4397L41.8847 35.3622C41.8716 35.3034 41.8948 35.2671 41.9536 35.2546L45.5478 34.4493C45.6377 34.43 45.6826 34.3579 45.6632 34.2697L45.3139 32.7071C45.2938 32.6189 45.2218 32.5733 45.1328 32.5925L41.5377 33.3978C41.4789 33.4102 41.4431 33.3877 41.43 33.3289L40.9848 31.3397C40.9717 31.2809 40.9941 31.2453 41.053 31.2314L45.3696 30.2657C45.4595 30.2456 45.5051 30.1736 45.4857 30.0854L45.1326 28.509C45.1125 28.4199 45.0412 28.3742 44.9515 28.3944L38.528 29.8314C38.4397 29.8515 38.3932 29.9235 38.4134 30.0118L40.5891 39.7369C40.6092 39.8252 40.6812 39.8709 40.7695 39.8508L47.193 38.4138C47.2828 38.3936 47.3285 38.3217 47.3084 38.2333L46.9553 36.6569C46.9362 36.5685 46.8642 36.5228 46.7743 36.543Z" fill="#203864"/>
</g>
<defs>
<clipPath id="clip0_54_366">
<rect width="60" height="60" fill="white" transform="translate(0 7)"/>
</clipPath>
</defs>
</svg>
