<svg width="317" height="64" viewBox="0 0 317 64" fill="none" xmlns="http://www.w3.org/2000/svg">
<path d="M129.74 5.59708C130.566 4.99917 131.454 4.48666 132.47 4.99916C134.226 5.87467 135.877 6.36578 137.421 4.5934C137.633 4.33716 138.225 4.23043 138.585 4.31584C139.854 4.57209 140.912 4.20903 142.119 3.73925C143.007 3.39758 144.256 3.37624 145.335 3.26947C150.625 2.79969 155.766 1.00596 161.204 1.88147C163.235 2.20178 165.394 1.8601 167.488 1.60386C170.155 1.28355 172.778 0.96326 175.466 1.41169C175.995 1.49711 176.629 1.49711 177.116 1.30492C179.888 0.130458 182.66 0.899219 185.432 1.21953C187.061 1.41171 188.69 2.07366 190.214 0.664306C190.616 0.279935 191.547 0.408038 192.245 0.429392C196.18 0.621577 200.095 0.899209 204.009 1.04869C205.258 1.09139 206.654 1.13407 207.755 0.642931C209.701 -0.253933 211.627 -0.0403524 213.531 0.258602C215.88 0.642972 218.186 0.514839 220.535 0.3013C222.883 0.0664067 225.296 -0.0403836 227.581 0.920542C228.343 1.24085 229.231 1.30491 230.035 1.56116C232.236 2.24448 234.415 2.45803 236.595 1.30492C237.378 1.81742 238.034 2.37264 238.774 2.7143C239.769 3.18409 240.89 3.91012 241.885 3.782C243.81 3.56846 245.482 3.88876 247.132 4.78562C248.507 5.55436 250.073 5.40487 251.131 4.50801C253.078 2.8424 255.067 3.33353 257.098 3.80332C260.399 4.57206 263.742 4.7429 267.085 4.82832C268.207 4.84967 269.265 4.74288 270.344 5.23402C271.232 5.61839 272.248 5.87466 273.2 5.89601C275.761 5.96007 277.75 7.09182 279.506 8.82149C279.527 9.22721 279.611 9.6543 279.569 10.06C279.442 11.3199 280.056 11.8324 281.241 11.8324C281.77 12.6652 282.383 13.2845 283.589 12.836C283.018 11.6189 281.897 12.2381 281.114 11.9178C280.564 10.8928 280.035 9.8465 279.506 8.80016C280.373 9.07776 281.177 10.0386 282.151 8.97095C283.293 7.75378 284.542 8.22357 285.536 9.07772C286.594 9.97459 287.44 11.1277 288.371 12.174L288.477 12.0459C287.927 12.0887 287.398 12.1314 286.827 12.1954C286.827 13.0282 286.827 13.6902 286.827 14.4376C285.832 15.3344 284.753 14.7365 283.695 14.5016C281.389 13.9678 279.231 12.836 276.692 13.2417C276.057 13.3485 275.253 12.1954 274.174 11.3413C273.687 11.3413 272.714 11.3199 271.761 11.3413C270.111 11.384 264.546 10.06 262.98 9.24856C262.726 9.12044 262.451 8.80012 262.282 8.86418C260.166 9.5048 258.114 8.80014 256.04 8.67202C255.638 8.65066 255.151 8.73609 254.834 8.94963C250.941 11.4907 246.688 10.1027 242.583 10.0386C241.038 9.09908 239.282 9.5689 237.631 9.33401C234.86 8.94964 232.024 9.56888 229.274 8.67202C228.66 8.47983 227.856 8.60798 227.2 8.80016C224.216 9.67567 221.445 8.50117 218.377 8.33034C219.519 7.0491 219.519 7.04914 225.719 6.66477C224.28 6.10957 223.053 5.59708 221.826 5.17C221.148 4.93511 217.784 5.98142 216.811 6.57933C213.362 8.73607 209.638 9.63295 205.596 8.94963C204.771 8.80015 203.882 8.65066 203.163 8.24494C201.28 7.15589 199.333 7.3481 197.45 7.94601C196.054 8.39444 194.742 8.47983 193.303 8.24494C191.779 7.98869 190.235 7.8819 188.732 8.54387C188.246 8.75741 187.59 8.94961 187.082 8.82149C183.146 7.7965 179.232 8.90691 175.381 9.20587C170.239 9.59024 165.055 9.71837 159.956 10.8715C157.247 11.4907 154.349 11.384 151.556 11.3626C148.022 11.3413 144.531 11.4267 141.124 12.4943C140.32 12.7506 139.452 12.9428 138.627 12.9214C132.66 12.7292 126.99 14.5871 121.171 15.3558C118.251 15.7402 115.31 16.2313 112.369 16.3594C108.496 16.5089 104.984 18.1104 101.281 18.9005C98.0014 19.6052 94.7429 20.5234 91.4844 21.3562C90.1302 21.6979 88.7971 22.1036 87.4641 22.4453C86.5119 22.6802 85.4963 23.1286 84.6076 22.9791C82.6609 22.6375 81.0105 23.1499 79.4024 24.1322C79.0427 24.3458 78.683 24.602 78.281 24.7301C74.43 26.0327 70.579 27.3567 66.7068 28.5952C62.7077 29.8978 58.6875 31.0082 54.8153 32.7165C51.3452 34.2327 47.6635 35.2363 44.1299 36.6243C41.6542 37.5852 39.2421 38.7596 36.8511 39.9341C33.3175 41.6424 29.7839 43.3935 26.2715 45.1872C22.1454 47.3012 18.3367 49.9491 14.5915 52.6824C12.7718 54.0064 10.9733 55.373 9.0478 56.5048C7.65129 57.3162 6.61448 58.3198 5.78927 59.6865C4.92174 61.1172 3.80029 62.4198 2.63653 64C1.95943 63.4662 1.21888 63.1885 0.986124 62.676C-0.875893 58.7896 -0.177637 56.8891 3.73683 52.5543C4.66784 51.5293 6.00085 50.8673 7.10113 49.9704C8.49765 48.8387 9.83069 47.771 10.8887 46.1481C12.5179 43.6284 15.3956 42.3044 18.1463 41.3008C20.3257 40.5107 22.23 39.5284 23.9016 37.9269C24.5152 37.3503 25.1923 36.667 25.9541 36.4535C28.6836 35.6634 30.9477 33.891 33.5079 32.7806C37.634 30.9868 41.9716 29.7056 45.8861 27.3994C46.4574 27.0577 47.3038 26.7588 47.8751 26.9296C49.3562 27.3567 49.2081 25.6911 50.1603 25.3921C50.7527 25.5416 51.4298 25.7124 52.2974 25.926C54.4768 23.513 57.6507 23.1073 60.613 22.4667C63.5541 21.826 66.2625 20.7797 68.8651 19.3917C68.8651 19.6906 68.8862 19.9469 68.8862 20.2245C68.8651 19.9683 68.8439 19.712 68.8228 19.4344C69.3094 19.1354 69.7326 18.687 70.2616 18.5589C72.1448 18.0677 74.1549 17.9182 75.9323 17.1922C77.6885 16.4662 79.3812 16.0818 81.2433 16.2954C82.2801 16.4235 83.1476 16.1459 83.9305 15.3985C85.1366 14.2667 86.7235 13.8397 88.247 14.0319C90.3417 14.2881 92.1191 13.5407 93.9388 12.8787C96.2029 12.0673 98.4246 11.2131 100.858 11.0636C101.556 11.0209 102.276 10.8715 102.91 10.5939C105.936 9.33399 109.004 8.39442 112.326 8.67202C112.728 8.71473 113.215 8.65064 113.553 8.4371C116.198 6.79285 119.203 7.13454 122.081 6.85694C122.504 6.81423 123.033 6.98508 123.308 6.77154C125.297 5.36219 127.624 6.13088 129.783 5.6611C129.931 5.61839 130.058 5.57571 130.185 5.53301C130.29 5.4903 130.375 5.42625 130.481 5.38354C130.248 5.40489 129.994 5.51166 129.74 5.59708ZM270.217 6.83556C269.878 6.70744 269.413 6.3231 268.99 6.38716C268.037 6.51529 267.72 7.32673 267.805 8.20224C267.826 8.47984 268.27 8.92828 268.566 8.94963C269.497 9.03505 270.344 8.05273 270.217 6.83556ZM234.458 7.43348C233.738 5.59705 232.871 5.63976 231.918 6.32309C231.622 6.53663 231.453 6.92099 231.093 7.43348C232.278 7.43348 233.209 7.43348 234.458 7.43348ZM208.178 3.69655C207.522 3.33353 207.141 2.97052 206.929 3.05593C206.591 3.1627 206.189 3.58978 206.146 3.91009C206.125 4.18769 206.697 4.78561 206.845 4.72155C207.268 4.57207 207.585 4.18769 208.178 3.69655ZM150.349 3.88877C149.757 3.71793 149.397 3.5044 149.08 3.56846C148.784 3.61117 148.551 3.95282 148.297 4.145C148.614 4.29448 148.932 4.59343 149.249 4.57208C149.545 4.57208 149.842 4.23043 150.349 3.88877ZM250.242 7.39078C250.052 7.30537 249.862 7.17726 249.671 7.13455C249.587 7.11319 249.46 7.21995 249.354 7.28401C249.46 7.45485 249.608 7.77514 249.692 7.75379C249.883 7.71108 250.052 7.51891 250.242 7.39078ZM273.75 8.62932C273.772 8.5012 273.793 8.39444 273.814 8.26632C273.581 8.24496 273.37 8.20222 273.137 8.18087C273.116 8.30899 273.073 8.52255 273.094 8.52255C273.306 8.56526 273.518 8.60797 273.75 8.62932ZM244.529 6.02416C244.424 5.96009 244.339 5.896 244.233 5.83194C244.191 5.93871 244.085 6.06686 244.127 6.13093C244.17 6.21634 244.318 6.25903 244.402 6.32309C244.445 6.23767 244.487 6.13093 244.529 6.02416ZM240.086 5.49031C239.98 5.49031 239.874 5.46893 239.769 5.46893C239.874 5.55435 239.959 5.66113 240.065 5.74654C240.065 5.66113 240.086 5.57572 240.086 5.49031ZM255.828 6.42986L255.532 6.25902L255.49 6.558L255.828 6.42986ZM77.8578 18.3026L77.6039 18.4307L77.8578 18.5589V18.3026Z" fill="#203864"/>
<path d="M296.581 12.4303C297.555 14.3095 299.734 13.8823 301.977 15.0568C299.713 15.0568 298.232 15.0995 296.751 15.0355C295.079 14.9714 293.407 14.7579 291.757 14.6938C289.937 14.6297 288.922 13.6902 288.541 11.9605L288.435 12.0886C289.683 11.7043 290.932 11.7469 292.138 12.2808C293.619 12.9214 295.121 12.9855 296.666 12.4943L296.581 12.4303Z" fill="#203864"/>
<path d="M300.411 16.9573C302.866 16.9573 304.368 16.8719 305.828 17C306.357 17.0427 306.844 17.662 307.521 18.1531C304.622 18.9432 303.141 18.7511 300.411 16.9573Z" fill="#203864"/>
<path d="M317 19.7547C314.292 20.6088 314.292 20.6089 313.022 18.3454C314.207 18.1959 314.207 18.1959 317 19.7547Z" fill="#203864"/>
</svg>
