<svg width="60" height="74" viewBox="0 0 60 74" fill="none" xmlns="http://www.w3.org/2000/svg">
<path d="M27.5 32C33.0228 32 37.5 27.5228 37.5 22C37.5 16.4772 33.0228 12 27.5 12C21.9772 12 17.5 16.4772 17.5 22C17.5 27.5228 21.9772 32 27.5 32Z" stroke="#008081" stroke-width="5"/>
<path d="M42.5 32.75C43.8017 33.9215 44.5315 34.5785 45.8332 35.75L52.5 28.25" stroke="#008081" stroke-width="5" stroke-linecap="round" stroke-linejoin="round"/>
<path d="M47.4937 52C47.5 51.5895 47.5 51.1725 47.5 50.75C47.5 44.5367 38.5458 39.5 27.5 39.5C16.4543 39.5 7.5 44.5367 7.5 50.75C7.5 56.9633 7.5 62 27.5 62C33.0775 62 37.0995 61.6083 40 60.9085" stroke="#008081" stroke-width="5" stroke-linecap="round"/>
</svg>
