<svg width="42" height="42" viewBox="0 0 42 42" fill="none" xmlns="http://www.w3.org/2000/svg">
<circle cx="21" cy="21" r="21" fill="#D5FFFF"/>
<path d="M27.9674 23.7441L27.9675 23.7441L27.9727 23.7368C29.0539 22.2399 30.8066 21.3998 32.6559 21.3998C32.804 21.3998 32.92 21.4566 33.0169 21.576C33.0307 21.638 33.0362 21.703 33.0319 21.7588C33.0288 21.7996 33.0219 21.8208 33.0188 21.8288L32.9807 21.867L32.947 21.9268L30.4936 26.2884L30.4936 26.2883L30.4916 26.2919C29.1241 28.7706 26.5641 30.3042 23.7511 30.3042C19.5752 30.3042 15.491 31.5078 11.9616 33.8227C11.7709 33.9171 11.705 33.9388 11.666 33.9388H11.6654H11.6649H11.6644H11.6639H11.6633H11.6628H11.6623H11.6618H11.6613H11.6607H11.6602H11.6597H11.6592H11.6587H11.6582H11.6577H11.6572H11.6567H11.6562H11.6557H11.6552H11.6547H11.6543H11.6538H11.6533H11.6528H11.6523H11.6518H11.6514H11.6509H11.6504H11.6499H11.6495H11.649H11.6485H11.6481H11.6476H11.6472H11.6467H11.6462H11.6458H11.6453H11.6449H11.6444H11.644H11.6435H11.6431H11.6427H11.6422H11.6418H11.6413H11.6409H11.6405H11.64H11.6396H11.6392H11.6387H11.6383H11.6379H11.6375H11.6371H11.6366H11.6362H11.6358H11.6354H11.635H11.6346H11.6341H11.6337H11.6333H11.6329H11.6325H11.6321H11.6317H11.6313H11.6309H11.6305H11.6301H11.6297H11.6293H11.6289H11.6286H11.6282H11.6278H11.6274H11.627H11.6266H11.6262H11.6259H11.6255H11.6251H11.6247H11.6244H11.624H11.6236H11.6232H11.6229H11.6225H11.6221H11.6218H11.6214H11.621H11.6207H11.6203H11.62H11.6196H11.6192H11.6189H11.6185H11.6182H11.6178H11.6175H11.6171H11.6168H11.6164H11.6161H11.6157H11.6154H11.6151H11.6147H11.6144H11.614H11.6137H11.6134H11.613H11.6128C11.57 33.9128 11.5254 33.8828 11.4845 33.851C11.4486 33.823 11.4211 33.798 11.4021 33.7777C11.391 33.7658 11.3856 33.7586 11.384 33.7563L11.3777 33.7437L11.3678 33.7272L8.64183 29.1839L8.63571 29.1737L8.62911 29.1638C8.55934 29.0592 8.55934 28.9145 8.6291 28.8099L8.62916 28.8099L8.63367 28.8029L11.087 24.9866L11.0871 24.9866L11.0923 24.9782C12.4456 22.7791 14.91 21.3998 18.0265 21.3998H21.752H22.252V20.8998V18.9917V18.5517L21.8156 18.4957C18.5106 18.072 15.8914 15.2765 15.8914 11.8133C15.8914 11.6543 15.9423 11.5607 15.9949 11.5081C16.0475 11.4554 16.1411 11.4046 16.3001 11.4046C18.3217 11.4046 20.1035 12.3306 21.3873 13.7L22.252 14.6224V13.358V8.17867C22.252 8.0197 22.3028 7.92608 22.3555 7.87345C22.4081 7.82083 22.5017 7.77002 22.6607 7.77002C22.8196 7.77002 22.9133 7.82083 22.9659 7.87345C23.0185 7.92608 23.0693 8.0197 23.0693 8.17867V10.632V11.8964L23.9341 10.974C25.2179 9.60464 26.9996 8.67867 29.0213 8.67867C29.1802 8.67867 29.2738 8.72948 29.3265 8.78211C29.3791 8.83473 29.4299 8.92836 29.4299 9.08733C29.4299 12.4635 26.8068 15.3465 23.5057 15.7698L23.0693 15.8257V16.2657V20.8998V21.3998H23.5693C23.6339 21.3998 23.7403 21.4371 23.8405 21.5373C23.9407 21.6375 23.978 21.7439 23.978 21.8085V21.8993C23.978 23.0352 22.8826 24.0344 21.6612 24.0344H19.9347C19.5485 24.0344 19.1878 24.1654 18.9224 24.4308C18.657 24.6962 18.5261 25.0569 18.5261 25.4431C18.5261 25.8293 18.657 26.19 18.9224 26.4554C19.1878 26.7208 19.5485 26.8518 19.9347 26.8518H22.6607C24.3347 26.8518 26.0259 26.1638 27.1313 24.8574L27.1408 24.8462L27.1496 24.8344L27.9674 23.7441Z" stroke="#008081"/>
</svg>
