<svg width="42" height="42" viewBox="0 0 42 42" fill="none" xmlns="http://www.w3.org/2000/svg">
<circle cx="21" cy="21" r="21" fill="#FFCDC8"/>
<path d="M17.157 24.3748L15.8339 22.0831L14.5108 19.7915C14.3094 19.4426 13.8058 19.4426 13.6043 19.7915L12.2812 22.0831L10.9581 24.3748C10.7567 24.7237 11.0085 25.1599 11.4114 25.1599H14.0576H16.7037C17.1066 25.1599 17.3584 24.7237 17.157 24.3748Z" fill="#FF5443"/>
<path d="M19.3003 20.1699L18.0637 18.0278C17.8622 17.6789 17.3586 17.6789 17.1571 18.0278L15.9204 20.1699H19.3003Z" fill="#FF5443"/>
<path d="M19.895 21.2L19.7188 20.895H15.9868L17.7855 24.0103C17.9925 24.3683 18.01 24.7899 17.8384 25.1589H21.2741C21.6771 25.1589 21.9289 24.7227 21.7274 24.3738L19.895 21.2Z" fill="#FF5443"/>
<path d="M12.3363 19.6701C13.1365 19.6701 13.7853 19.0213 13.7853 18.221C13.7853 17.4207 13.1365 16.772 12.3363 16.772C11.536 16.772 10.8872 17.4207 10.8872 18.221C10.8872 19.0213 11.536 19.6701 12.3363 19.6701ZM12.3363 17.4989C12.7344 17.4989 13.0584 17.8228 13.0584 18.221C13.0584 18.6192 12.7344 18.9431 12.3363 18.9431C11.9381 18.9431 11.6141 18.6192 11.6141 18.221C11.6141 17.8228 11.9381 17.4989 12.3363 17.4989Z" fill="#FF5443"/>
<path d="M25.5842 19.7153C25.8073 19.6791 25.9587 19.4689 25.9225 19.2459C25.8863 19.0229 25.6762 18.8714 25.4532 18.9076C25.2301 18.9438 25.0787 19.1539 25.1149 19.377C25.1511 19.6 25.3612 19.7515 25.5842 19.7153Z" fill="#FF5443"/>
<path d="M30.239 16.772H24.5134C24.0317 16.772 23.6411 17.1625 23.6411 17.6443V24.2871C23.6411 24.7689 24.0317 25.1594 24.5134 25.1594H30.239C30.7208 25.1594 31.1113 24.7689 31.1113 24.2871V17.6443C31.1114 17.1625 30.7208 16.772 30.239 16.772ZM27.8957 19.9532C28.003 19.7671 28.2714 19.7671 28.379 19.9532L29.0381 21.0953H27.4407L27.3383 20.9183L27.8957 19.9532ZM24.3818 19.3113C24.3818 18.6849 24.8914 18.1753 25.5178 18.1753C26.1442 18.1753 26.6538 18.6849 26.6538 19.3113C26.6538 19.9377 26.1442 20.4473 25.5178 20.4473C24.8914 20.4474 24.3818 19.9377 24.3818 19.3113ZM27.6539 23.7562H26.2431H24.8322C24.6174 23.7562 24.4832 23.5237 24.5906 23.3376L25.296 22.1158L26.0015 20.8939C26.1088 20.7079 26.3774 20.7079 26.4848 20.8939L27.1902 22.1158L27.8956 23.3376C28.003 23.5236 27.8688 23.7562 27.6539 23.7562ZM30.0913 23.7562H28.6203C28.695 23.4968 28.6633 23.2133 28.5252 22.974L27.8602 21.8223H29.0381C29.1681 21.8223 29.2929 21.7877 29.4016 21.7248L30.3329 23.3375C30.4402 23.5235 30.3062 23.7562 30.0913 23.7562Z" fill="#FF5443"/>
<path d="M14.6034 14.8373C14.8035 14.8336 14.9601 14.6619 14.9601 14.4618V12.0976C14.9601 11.8166 15.1879 11.5888 15.4689 11.5888H25.7311C26.0122 11.5888 26.24 11.8166 26.24 12.0976V13.1065C26.24 13.2353 26.1356 13.3397 26.0068 13.3397C25.8516 13.3397 25.7546 13.5077 25.8321 13.6421L26.1305 14.1589L26.4289 14.6756C26.5065 14.81 26.7004 14.81 26.778 14.6756L27.0764 14.1589L27.3748 13.6421C27.4524 13.5077 27.3554 13.3397 27.2002 13.3397C27.0713 13.3397 26.9669 13.2353 26.9669 13.1065V12.0976C26.9669 11.4151 26.4137 10.8618 25.7312 10.8618H15.4689C14.7864 10.8618 14.2332 11.4151 14.2332 12.0976V14.4739C14.2332 14.6769 14.3996 14.841 14.6034 14.8373Z" fill="#FF5443"/>
<path d="M27.3948 26.1783C27.1947 26.1819 27.0382 26.3536 27.0382 26.5538V29.9018C27.0382 30.1828 26.8103 30.4106 26.5293 30.4106H16.2671C15.9861 30.4106 15.7583 30.1828 15.7583 29.9018V27.8908C15.7583 27.762 15.8627 27.6576 15.9915 27.6576C16.1467 27.6576 16.2437 27.4896 16.1661 27.3552L15.8678 26.8384L15.5694 26.3216C15.4918 26.1872 15.2978 26.1872 15.2202 26.3216L14.9219 26.8384L14.6235 27.3552C14.5459 27.4896 14.6429 27.6576 14.7981 27.6576C14.9269 27.6576 15.0314 27.762 15.0314 27.8908V29.9018C15.0314 30.5843 15.5846 31.1376 16.2671 31.1376H26.5293C27.2118 31.1376 27.7651 30.5843 27.7651 29.9018V26.5417C27.7651 26.3387 27.5986 26.1745 27.3948 26.1783Z" fill="#FF5443"/>
<path d="M17.5007 14.7762H18.603C18.8038 14.7762 18.9665 14.6135 18.9665 14.4128C18.9665 14.212 18.8038 14.0493 18.603 14.0493H17.5007C17.3 14.0493 17.1372 14.212 17.1372 14.4128C17.1372 14.6135 17.3 14.7762 17.5007 14.7762Z" fill="#FF5443"/>
<path d="M24.8599 14.4128C24.8599 14.212 24.6971 14.0493 24.4964 14.0493H20.3639C20.1632 14.0493 20.0005 14.212 20.0005 14.4128C20.0005 14.6135 20.1632 14.7762 20.3639 14.7762H24.4964C24.6971 14.7762 24.8599 14.6135 24.8599 14.4128Z" fill="#FF5443"/>
<path d="M17.5007 26.6704C17.3 26.6704 17.1372 26.8331 17.1372 27.0339C17.1372 27.2346 17.3 27.3973 17.5007 27.3973H18.603C18.8038 27.3973 18.9665 27.2346 18.9665 27.0339C18.9665 26.8331 18.8038 26.6704 18.603 26.6704H17.5007Z" fill="#FF5443"/>
<path d="M20.0005 27.0339C20.0005 27.2346 20.1632 27.3973 20.3639 27.3973H24.4964C24.6972 27.3973 24.8599 27.2346 24.8599 27.0339C24.8599 26.8332 24.6972 26.6704 24.4964 26.6704H20.3639C20.1632 26.6704 20.0005 26.8332 20.0005 27.0339Z" fill="#FF5443"/>
</svg>
