<svg width="42" height="42" viewBox="0 0 42 42" fill="none" xmlns="http://www.w3.org/2000/svg">
<circle cx="21" cy="21" r="21" fill="#D5FFFF"/>
<g clip-path="url(#clip0_1_505)">
<path d="M34.3869 12.9398V11.1092L34.1217 11.0047C34.0321 10.9687 31.8798 10.1333 29.0086 10.1333C25.9332 10.1333 23.2857 11.0703 21.1297 12.9195C18.9747 11.0703 16.3253 10.1333 13.2499 10.1333C10.3787 10.1333 8.22646 10.9687 8.13683 11.0038L7.87161 11.1092V12.8049C7.00203 12.9675 6.46143 13.2586 6.46143 13.7336C6.46143 16.2065 6.46143 31.2158 6.46143 31.2158H19.336C19.7815 31.615 20.433 31.8654 21.1611 31.8654C21.8893 31.8654 22.5408 31.615 22.9862 31.2158H35.5383C35.5383 31.2158 35.5383 14.6013 35.5383 13.7336C35.5374 13.3473 35.0994 13.0951 34.3869 12.9398ZM20.9902 29.837C19.921 29.3962 16.2394 27.9972 12.5531 27.9972C11.0967 27.9972 9.80576 28.2199 8.70607 28.6616V11.6867C9.3474 11.4733 11.0967 10.9668 13.2499 10.9668C16.0813 10.9668 18.5136 11.8235 20.5004 13.4933V23.6252L20.9911 23.0855L20.9902 29.837ZM33.5525 28.6653C32.3714 28.1903 31.0167 27.9519 29.5132 27.9519C25.8288 27.9519 22.3209 29.3639 21.2665 29.8278V23.0846L21.7563 23.6243V13.4924C23.7431 11.8216 26.1763 10.9659 29.0077 10.9659C31.1535 10.9659 32.9083 11.4733 33.5506 11.6858V28.6653H33.5525Z" fill="#008081"/>
<path d="M10.356 13.9192L10.5297 14.5726C14.8776 13.4202 18.7893 15.554 18.8281 15.5761L19.1571 14.9847C18.9889 14.8914 14.9728 12.6957 10.356 13.9192Z" fill="#008081"/>
<path d="M10.356 15.8315L10.5297 16.484C14.8776 15.3307 18.7893 17.4654 18.8281 17.4857L19.1571 16.897C18.9889 16.8018 14.9728 14.608 10.356 15.8315Z" fill="#008081"/>
<path d="M10.356 17.627L10.5297 18.2803C14.8776 17.1289 18.7893 19.2627 18.8281 19.2839L19.1571 18.6925C18.9889 18.6001 14.9728 16.4063 10.356 17.627Z" fill="#008081"/>
<path d="M10.356 19.5994L10.5297 20.2518C14.8776 19.0985 18.7893 21.2332 18.8281 21.2554L19.1571 20.6649C18.9889 20.5706 14.9728 18.3749 10.356 19.5994Z" fill="#008081"/>
<path d="M10.356 21.4242L10.5297 22.0776C14.8776 20.9243 18.7893 23.059 18.8281 23.0812L19.1571 22.4897C18.9889 22.3973 14.9728 20.2026 10.356 21.4242Z" fill="#008081"/>
<path d="M10.356 23.3007L10.5297 23.9522C14.8776 22.7998 18.7893 24.9345 18.8281 24.9557L19.1571 24.3662C18.9889 24.271 14.9728 22.0762 10.356 23.3007Z" fill="#008081"/>
<path d="M10.356 25.1786L10.5297 25.832C14.8776 24.6787 18.7893 26.8134 18.8281 26.8346L19.1571 26.245C18.9889 26.1508 14.9728 23.956 10.356 25.1786Z" fill="#008081"/>
<path d="M27.6639 16.5816V15.8423H27.1825V16.5816C26.8932 16.5816 26.5994 16.6241 26.3046 16.7072C26.007 16.7904 25.7418 16.9189 25.5034 17.0954C25.2668 17.2719 25.0718 17.4964 24.9203 17.7709C24.7706 18.0444 24.6948 18.3706 24.6948 18.7458C24.6948 19.012 24.7345 19.2347 24.814 19.4176C24.8935 19.5997 25.009 19.7568 25.1568 19.8889C25.3047 20.0229 25.484 20.1366 25.6928 20.2318C25.9035 20.3279 26.1355 20.4175 26.3877 20.5044C26.5282 20.5534 26.6659 20.5959 26.799 20.6291C26.933 20.6633 27.0586 20.6984 27.1825 20.7354V22.0402C27.005 22.0264 26.8646 21.9885 26.7666 21.9247C26.6687 21.86 26.5929 21.7824 26.5393 21.6919C26.4866 21.6031 26.4534 21.5098 26.4386 21.4091C26.4219 21.313 26.4155 21.2224 26.4155 21.142H24.436C24.449 21.4442 24.5072 21.739 24.6116 22.0208C24.7151 22.3045 24.8787 22.554 25.0958 22.774C25.3149 22.993 25.5958 23.1695 25.9377 23.3007C26.2805 23.4329 26.6955 23.4994 27.1825 23.4994V24.4143H27.6639V23.4994C28.1509 23.4994 28.5668 23.4347 28.9087 23.3063C29.2506 23.176 29.5297 23.0106 29.745 22.8054C29.9613 22.6021 30.1165 22.3738 30.2126 22.1225C30.3087 21.8702 30.3549 21.6161 30.3549 21.3647C30.3549 21.1051 30.3281 20.8639 30.2717 20.6421C30.2154 20.4212 30.0962 20.2151 29.9058 20.0285C29.7173 19.84 29.4456 19.6662 29.0907 19.5082C28.7368 19.352 28.2609 19.2088 27.663 19.0785V18.0435C27.7785 18.0675 27.8774 18.098 27.9587 18.1276C28.0382 18.1581 28.1038 18.1978 28.1574 18.2477C28.2091 18.2976 28.2498 18.3623 28.2766 18.4409C28.3053 18.5222 28.3247 18.6201 28.3367 18.7384H30.1026C30.1026 18.3623 30.038 18.037 29.904 17.7653C29.77 17.4946 29.5925 17.2719 29.3671 17.0944C29.1425 16.9198 28.8828 16.7895 28.5843 16.7063C28.2942 16.6232 27.9855 16.5816 27.6639 16.5816ZM27.1834 18.9685C26.7454 18.8817 26.5264 18.7153 26.5264 18.4704C26.5264 18.2847 26.5947 18.1673 26.7297 18.1174C26.8655 18.0675 27.018 18.0435 27.1834 18.0435V18.9685ZM28.2295 21.1097C28.3644 21.1938 28.4319 21.3167 28.4319 21.4756C28.4319 21.6549 28.3579 21.7898 28.211 21.8795C28.0631 21.9691 27.8811 22.0227 27.6649 22.0421V20.8676C27.9051 20.9452 28.0927 21.0265 28.2295 21.1097Z" fill="#008081"/>
</g>
<defs>
<clipPath id="clip0_1_505">
<rect width="29.0769" height="29.0769" fill="white" transform="translate(6.46143 6.46143)"/>
</clipPath>
</defs>
</svg>
