<svg width="42" height="42" viewBox="0 0 42 42" fill="none" xmlns="http://www.w3.org/2000/svg">
<circle cx="21" cy="21" r="21" fill="#FFE2D1"/>
<path d="M14.3364 25.241V16.7603H19.1826" stroke="#F5772D" stroke-linecap="round" stroke-linejoin="round"/>
<path d="M14.3364 21.0005H18.8797" stroke="#F5772D" stroke-linecap="round" stroke-linejoin="round"/>
<path d="M14.3364 25.2407H18.8797" stroke="#F5772D" stroke-linecap="round" stroke-linejoin="round"/>
<path d="M22.2114 25.2402V17.9709" stroke="#F5772D" stroke-linecap="round" stroke-linejoin="round"/>
<path d="M22.2114 25.2404V21.3029C22.2114 19.7973 23.4319 18.5769 24.9374 18.5769C26.4429 18.5769 27.6633 19.7973 27.6633 21.3029V25.2404" stroke="#F5772D" stroke-linecap="round" stroke-linejoin="round"/>
<path d="M30.0863 10.0959H11.9133C10.9096 10.0959 10.0959 10.9096 10.0959 11.9133V30.0863C10.0959 31.09 10.9096 31.9036 11.9133 31.9036H30.0863C31.09 31.9036 31.9036 31.09 31.9036 30.0863V11.9133C31.9036 10.9096 31.09 10.0959 30.0863 10.0959Z" stroke="#F5772D" stroke-linecap="round" stroke-linejoin="round"/>
</svg>
