<svg width="42" height="42" viewBox="0 0 42 42" fill="none" xmlns="http://www.w3.org/2000/svg">
<circle cx="21" cy="21" r="21" fill="#FFE2D1"/>
<g clip-path="url(#clip0_1_483)">
<path d="M32.5081 28.2681H9.48889V30.6911H32.5081V28.2681Z" fill="#F5772D"/>
<path d="M33.1148 31.9028H8.88402C8.5627 31.9028 8.25454 32.0305 8.02734 32.2577C7.80013 32.4849 7.67249 32.7931 7.67249 33.1144V34.3259H34.3263V33.1144C34.3263 32.7931 34.1987 32.4849 33.9715 32.2577C33.7443 32.0305 33.4361 31.9028 33.1148 31.9028Z" fill="#F5772D"/>
<path d="M14.9413 17.3638H12.5182V27.0561H14.9413V17.3638Z" fill="#F5772D"/>
<path d="M22.2108 17.3638H19.7877V27.0561H22.2108V17.3638Z" fill="#F5772D"/>
<path d="M29.4803 17.3638H27.0573V27.0561H29.4803V17.3638Z" fill="#F5772D"/>
<path d="M33.66 13.3666L20.9994 7.67236L8.33883 13.3666C8.14145 13.4734 7.97584 13.6305 7.85881 13.822C7.74178 14.0135 7.6775 14.2326 7.67249 14.457V14.9416C7.67249 15.2629 7.80013 15.5711 8.02734 15.7983C8.25454 16.0255 8.5627 16.1531 8.88402 16.1531H33.1148C33.4361 16.1531 33.7443 16.0255 33.9715 15.7983C34.1987 15.5711 34.3263 15.2629 34.3263 14.9416V14.457C34.3213 14.2326 34.257 14.0135 34.14 13.822C34.023 13.6305 33.8574 13.4734 33.66 13.3666Z" fill="#F5772D"/>
</g>
<defs>
<clipPath id="clip0_1_483">
<rect width="29.0769" height="29.0769" fill="white" transform="translate(6.46155 6.46143)"/>
</clipPath>
</defs>
</svg>
