<svg width="42" height="42" viewBox="0 0 42 42" fill="none" xmlns="http://www.w3.org/2000/svg">
<circle cx="21" cy="21" r="21" fill="#C2D7FE"/>
<g clip-path="url(#clip0_1_499)">
<mask id="path-2-inside-1_1_499" fill="white">
<path d="M23.2607 21.2573C23.1301 22.4084 22.1591 23.2763 21.0023 23.2763C20.9163 23.2763 20.8294 23.2714 20.7435 23.2616C19.4969 23.1202 18.5979 21.9909 18.7393 20.7444C18.8698 19.5933 19.8408 18.7254 20.9977 18.7254C21.0836 18.7254 21.1706 18.7303 21.2564 18.7401C22.503 18.8815 23.4021 20.0107 23.2607 21.2573ZM28.0405 25.1026C29.599 29.1131 30.0553 32.5447 28.3629 33.5386C28.0753 33.7076 27.7459 33.7931 27.3844 33.7931C25.7055 33.793 23.445 31.8798 21.264 29.2682C19.1949 32.0938 16.9997 34.1767 15.2998 34.1767C14.9923 34.1767 14.7053 34.1105 14.447 33.9802C12.6164 33.0559 12.958 29.3264 14.4154 24.9839C13.1644 24.7827 12.005 24.5296 10.9769 24.2284C7.95917 23.3442 6.44005 22.1832 6.46165 20.7778C6.49237 18.7725 9.78194 17.507 13.9593 16.8989C12.4009 12.8885 11.9447 9.45687 13.637 8.46301C13.9247 8.294 14.254 8.20845 14.6157 8.20845C16.2946 8.20845 18.555 10.1217 20.7361 12.7333C22.8051 9.90765 25.0004 7.82471 26.7003 7.82471C27.0078 7.82471 27.2946 7.89091 27.553 8.02121C29.3836 8.94549 29.0419 12.675 27.5845 17.0175C28.8356 17.2188 29.9949 17.4718 31.023 17.7731C34.0408 18.6573 35.5599 19.8183 35.5383 21.2237C35.5074 23.2289 32.2179 24.4944 28.0405 25.1026ZM21.6414 13.8626C22.3089 14.728 22.9597 15.6443 23.5742 16.5756C24.4661 16.6336 25.3349 16.7148 26.1723 16.8182C26.5957 15.5845 26.9236 14.4131 27.1372 13.347C27.707 10.5053 27.2692 9.44943 26.9208 9.27355C26.8595 9.24256 26.7873 9.22755 26.7003 9.22755C25.679 9.22741 23.7537 10.914 21.6414 13.8626ZM25.041 23.041C24.8711 23.3773 24.6955 23.7152 24.5147 24.0532C25.0435 24.0232 25.5504 23.9847 26.0357 23.9393C25.8167 23.4497 25.5826 22.9527 25.3341 22.4506C25.2376 22.648 25.14 22.8449 25.041 23.041ZM24.5233 20.889C24.2581 20.4002 23.9823 19.9096 23.6939 19.4187C23.393 18.9061 23.0901 18.4124 22.7873 17.9349C22.2149 17.9062 21.635 17.886 21.0479 17.877C20.7904 17.8731 20.5341 17.8711 20.28 17.8711C19.8811 17.8711 19.4948 17.8767 19.115 17.8853C18.8111 18.433 18.5091 19.0024 18.2111 19.5928C17.9545 20.1009 17.7103 20.6081 17.4767 21.1126C17.7419 21.6014 18.0176 22.092 18.306 22.5829C18.607 23.0955 18.9098 23.5892 19.2126 24.0666C19.785 24.0954 20.365 24.1156 20.9521 24.1246C21.2096 24.1285 21.466 24.1305 21.72 24.1305C22.1189 24.1305 22.5051 24.1249 22.8849 24.1163C23.1889 23.5686 23.4909 22.9992 23.7889 22.4088C24.0454 21.9007 24.2896 21.3935 24.5233 20.889ZM21.7203 25.5332C21.4591 25.5332 21.1954 25.5312 20.9306 25.5271C20.6742 25.5232 20.4191 25.517 20.165 25.5093C20.5076 26.0079 20.8486 26.4823 21.1859 26.9317C21.4782 26.4871 21.7722 26.0201 22.0661 25.5318C21.9507 25.5326 21.8354 25.5332 21.7203 25.5332ZM16.7664 22.7226C16.6104 23.0955 16.4612 23.4655 16.3201 23.8313C16.703 23.8753 17.0933 23.9143 17.4889 23.949C17.3555 23.73 17.2243 23.5112 17.0963 23.2931C16.9852 23.1037 16.8752 22.9135 16.7664 22.7226ZM16.959 18.9606C17.1288 18.6243 17.3044 18.2864 17.4852 17.9484C16.9565 17.9784 16.4496 18.0168 15.9643 18.0623C16.1832 18.5519 16.4173 19.0488 16.6658 19.5508C16.7622 19.3536 16.86 19.1568 16.959 18.9606ZM20.28 16.4686C20.5411 16.4686 20.8045 16.4705 21.0693 16.4746C21.3257 16.4785 21.5808 16.4847 21.835 16.4924C21.4923 15.9938 21.1514 15.5194 20.8141 15.0699C20.5218 15.5145 20.2278 15.9814 19.9337 16.4698C20.0492 16.4691 20.1647 16.4686 20.28 16.4686ZM25.2334 19.2791C25.3894 18.9062 25.5386 18.5362 25.6797 18.1704C25.2968 18.1264 24.9065 18.0874 24.5109 18.0527C24.6443 18.2717 24.7755 18.4905 24.9034 18.7086C25.0147 18.8979 25.1247 19.0883 25.2334 19.2791ZM15.3948 16.7191C16.3376 16.6189 17.3098 16.5493 18.2869 16.5094C18.8027 15.619 19.3477 14.7437 19.9089 13.9114C17.6601 11.1544 15.6733 9.61101 14.6157 9.61101C14.5055 9.61101 14.4177 9.63121 14.3473 9.67244C14.0108 9.87006 13.6409 10.9517 14.3896 13.7515C14.6365 14.6747 14.9763 15.6733 15.3948 16.7191ZM14.8948 23.6399C15.2027 22.8226 15.5444 21.9923 15.9138 21.1624C15.3995 20.1797 14.926 19.194 14.5069 18.2288C10.1013 18.8247 7.87586 20.032 7.86407 20.7994C7.85804 21.1897 8.59004 22.0676 11.3713 22.8826C12.4151 23.1884 13.6052 23.4419 14.8948 23.6399ZM20.3585 28.1391C19.691 27.2737 19.0402 26.3575 18.4258 25.4262C17.5339 25.3681 16.665 25.2869 15.8277 25.1835C15.4042 26.4172 15.0763 27.5886 14.8627 28.6547C14.293 31.4964 14.7307 32.5523 15.0791 32.7282C15.1404 32.7592 15.2127 32.7742 15.2996 32.7742C16.321 32.7745 18.2463 31.0879 20.3585 28.1391ZM26.6051 25.2825C25.6623 25.3827 24.6902 25.4522 23.713 25.4922C23.1973 26.3824 22.6523 27.2579 22.0911 28.0902C24.3398 30.8472 26.3267 32.3906 27.3842 32.3907C27.4943 32.3907 27.5821 32.3705 27.6525 32.3293C27.989 32.1317 28.3589 31.05 27.6102 28.2502C27.3635 27.327 27.0235 26.3283 26.6051 25.2825ZM34.1357 21.2022C34.1418 20.8119 33.4098 19.934 30.6285 19.119C29.5848 18.8132 28.3948 18.5595 27.1051 18.3617C26.7973 19.179 26.4556 20.0093 26.0862 20.8392C26.6005 21.8218 27.074 22.8076 27.4931 23.7728C31.8985 23.177 34.124 21.9697 34.1357 21.2022Z"/>
</mask>
<path d="M23.2607 21.2573L23.7575 21.3137L23.7575 21.3137L23.2607 21.2573ZM20.7435 23.2616L20.8003 22.7648L20.7999 22.7648L20.7435 23.2616ZM18.7393 20.7444L18.2424 20.688V20.6881L18.7393 20.7444ZM21.2564 18.7401L21.1996 19.2369L21.2001 19.237L21.2564 18.7401ZM28.0405 25.1026L27.9685 24.6078L27.3469 24.6983L27.5744 25.2837L28.0405 25.1026ZM28.3629 33.5386L28.1097 33.1074L28.1096 33.1075L28.3629 33.5386ZM27.3844 33.7931L27.3843 34.2931H27.3844V33.7931ZM21.264 29.2682L21.6478 28.9477L21.2381 28.4572L20.8606 28.9728L21.264 29.2682ZM14.447 33.9802L14.2216 34.4266L14.2218 34.4267L14.447 33.9802ZM14.4154 24.9839L14.8895 25.143L15.0771 24.5839L14.4949 24.4903L14.4154 24.9839ZM10.9769 24.2284L11.1175 23.7485L11.1175 23.7485L10.9769 24.2284ZM6.46165 20.7778L6.96159 20.7855L6.96159 20.7854L6.46165 20.7778ZM13.9593 16.8989L14.0314 17.3936L14.6529 17.3032L14.4254 16.7178L13.9593 16.8989ZM13.637 8.46301L13.8902 8.89416L13.8903 8.89411L13.637 8.46301ZM20.7361 12.7333L20.3523 13.0538L20.762 13.5442L21.1395 13.0286L20.7361 12.7333ZM27.553 8.02121L27.7783 7.57487L27.7781 7.57477L27.553 8.02121ZM27.5845 17.0175L27.1105 16.8584L26.9229 17.4175L27.5051 17.5112L27.5845 17.0175ZM31.023 17.7731L30.8824 18.2529L30.8824 18.2529L31.023 17.7731ZM35.5383 21.2237L36.0382 21.2314V21.2313L35.5383 21.2237ZM21.6414 13.8626L21.235 13.5714L21.0185 13.8736L21.2455 14.168L21.6414 13.8626ZM23.5742 16.5756L23.1568 16.8509L23.2937 17.0584L23.5417 17.0745L23.5742 16.5756ZM26.1723 16.8182L26.111 17.3144L26.5135 17.3641L26.6452 16.9805L26.1723 16.8182ZM27.1372 13.347L26.647 13.2487L26.647 13.2488L27.1372 13.347ZM26.9208 9.27355L26.6952 9.71974L26.6955 9.7199L26.9208 9.27355ZM26.7003 9.22755L26.7003 9.72755H26.7003V9.22755ZM25.041 23.041L24.5946 22.8156V22.8156L25.041 23.041ZM24.5147 24.0532L24.0738 23.8174L23.6537 24.6029L24.5431 24.5524L24.5147 24.0532ZM26.0357 23.9393L26.0823 24.4371L26.7769 24.3721L26.4921 23.7352L26.0357 23.9393ZM25.3341 22.4506L25.7822 22.2288L25.3314 21.318L24.8849 22.231L25.3341 22.4506ZM24.5233 20.889L24.977 21.0991L25.0825 20.8713L24.9627 20.6505L24.5233 20.889ZM23.6939 19.4187L23.2628 19.6719L23.2628 19.672L23.6939 19.4187ZM22.7873 17.9349L23.2096 17.6671L23.0709 17.4485L22.8124 17.4356L22.7873 17.9349ZM21.0479 17.877L21.0555 17.3771H21.0555L21.0479 17.877ZM19.115 17.8853L19.1037 17.3854L18.817 17.3919L18.6778 17.6427L19.115 17.8853ZM18.2111 19.5928L17.7647 19.3674L17.7647 19.3674L18.2111 19.5928ZM17.4767 21.1126L17.023 20.9024L16.9174 21.1303L17.0372 21.351L17.4767 21.1126ZM18.306 22.5829L18.7372 22.3297L18.7371 22.3296L18.306 22.5829ZM19.2126 24.0666L18.7904 24.3345L18.929 24.553L19.1875 24.566L19.2126 24.0666ZM20.9521 24.1246L20.9444 24.6245H20.9445L20.9521 24.1246ZM22.8849 24.1163L22.8962 24.6162L23.183 24.6097L23.3221 24.3589L22.8849 24.1163ZM23.7889 22.4088L24.2352 22.6342L24.2352 22.6342L23.7889 22.4088ZM20.9306 25.5271L20.9383 25.0272H20.9383L20.9306 25.5271ZM20.165 25.5093L20.1801 25.0096L19.1943 24.9796L19.7529 25.7925L20.165 25.5093ZM21.1859 26.9317L20.786 27.2318L21.213 27.8006L21.6037 27.2063L21.1859 26.9317ZM22.0661 25.5318L22.4945 25.7896L22.9546 25.0253L22.0625 25.0318L22.0661 25.5318ZM16.7664 22.7226L17.2008 22.4749L16.6973 21.5919L16.3051 22.5297L16.7664 22.7226ZM16.3201 23.8313L15.8536 23.6514L15.6211 24.2542L16.263 24.328L16.3201 23.8313ZM17.4889 23.949L17.4452 24.4471L18.4304 24.5334L17.9159 23.6888L17.4889 23.949ZM17.0963 23.2931L16.6649 23.546L16.6651 23.5463L17.0963 23.2931ZM16.959 18.9606L16.5127 18.7352L16.5126 18.7354L16.959 18.9606ZM17.4852 17.9484L17.9261 18.1842L18.3462 17.3987L17.4569 17.4492L17.4852 17.9484ZM15.9643 18.0623L15.9177 17.5645L15.2231 17.6295L15.5078 18.2664L15.9643 18.0623ZM16.6658 19.5508L16.2178 19.7727L16.6688 20.6837L17.1151 19.7703L16.6658 19.5508ZM21.0693 16.4746L21.0616 16.9745L21.0617 16.9745L21.0693 16.4746ZM21.835 16.4924L21.8198 16.9922L22.8057 17.0221L22.2471 16.2092L21.835 16.4924ZM20.8141 15.0699L21.214 14.7698L20.787 14.2008L20.3963 14.7953L20.8141 15.0699ZM19.9337 16.4698L19.5054 16.2119L19.0456 16.9752L19.9367 16.9698L19.9337 16.4698ZM25.2334 19.2791L24.7989 19.5266L25.3022 20.4105L25.6947 19.4721L25.2334 19.2791ZM25.6797 18.1704L26.1462 18.3504L26.3787 17.7475L25.7368 17.6737L25.6797 18.1704ZM24.5109 18.0527L24.5546 17.5547L23.5694 17.4684L24.0839 18.3129L24.5109 18.0527ZM24.9034 18.7086L24.4721 18.9615L24.4724 18.9621L24.9034 18.7086ZM15.3948 16.7191L14.9306 16.9048L15.0713 17.2562L15.4477 17.2163L15.3948 16.7191ZM18.2869 16.5094L18.3074 17.009L18.5819 16.9977L18.7196 16.76L18.2869 16.5094ZM19.9089 13.9114L20.3234 14.1909L20.531 13.8831L20.2963 13.5954L19.9089 13.9114ZM14.3473 9.67244L14.0946 9.24099L14.0941 9.2413L14.3473 9.67244ZM14.3896 13.7515L14.8727 13.6224L14.8727 13.6223L14.3896 13.7515ZM14.8948 23.6399L14.819 24.1341L15.2198 24.1956L15.3627 23.8161L14.8948 23.6399ZM15.9138 21.1624L16.3706 21.3657L16.4689 21.1448L16.3568 20.9305L15.9138 21.1624ZM14.5069 18.2288L14.9655 18.0296L14.8148 17.6826L14.4399 17.7333L14.5069 18.2288ZM7.86407 20.7994L8.36401 20.8071L8.36402 20.8071L7.86407 20.7994ZM11.3713 22.8826L11.2307 23.3624L11.2308 23.3624L11.3713 22.8826ZM20.3585 28.1391L20.765 28.4303L20.9815 28.1281L20.7544 27.8338L20.3585 28.1391ZM18.4258 25.4262L18.8431 25.1508L18.7063 24.9434L18.4583 24.9272L18.4258 25.4262ZM15.8277 25.1835L15.8889 24.6873L15.4864 24.6376L15.3548 25.0212L15.8277 25.1835ZM14.8627 28.6547L15.353 28.753L15.353 28.7529L14.8627 28.6547ZM15.0791 32.7282L15.3048 32.282L15.3045 32.2818L15.0791 32.7282ZM15.2996 32.7742L15.2998 32.2742H15.2996V32.7742ZM26.6051 25.2825L27.0693 25.0968L26.9287 24.7453L26.5523 24.7853L26.6051 25.2825ZM23.713 25.4922L23.6926 24.9926L23.4181 25.0039L23.2804 25.2416L23.713 25.4922ZM22.0911 28.0902L21.6765 27.8107L21.469 28.1185L21.7036 28.4062L22.0911 28.0902ZM27.3842 32.3907L27.3842 32.8907H27.3842V32.3907ZM27.6525 32.3293L27.9052 32.7607L27.9058 32.7604L27.6525 32.3293ZM27.6102 28.2502L27.1271 28.3793L27.1271 28.3794L27.6102 28.2502ZM34.1357 21.2022L33.6358 21.1945V21.1945L34.1357 21.2022ZM30.6285 19.119L30.7691 18.6392L30.7691 18.6391L30.6285 19.119ZM27.1051 18.3617L27.1809 17.8675L26.7801 17.8061L26.6372 18.1855L27.1051 18.3617ZM26.0862 20.8392L25.6294 20.6359L25.531 20.8568L25.6432 21.0711L26.0862 20.8392ZM27.4931 23.7728L27.0344 23.9719L27.1851 24.319L27.5601 24.2683L27.4931 23.7728ZM22.7639 21.201C22.6619 22.0998 21.9043 22.7763 21.0023 22.7763V23.7763C22.4139 23.7763 23.5983 22.717 23.7575 21.3137L22.7639 21.201ZM21.0023 22.7763C20.9352 22.7763 20.8672 22.7725 20.8003 22.7648L20.6867 23.7583C20.7915 23.7703 20.8975 23.7763 21.0023 23.7763V22.7763ZM20.7999 22.7648C19.8277 22.6545 19.1258 21.7729 19.2361 20.8008L18.2424 20.6881C18.0699 22.2088 19.1661 23.5859 20.6872 23.7584L20.7999 22.7648ZM19.2361 20.8008C19.338 19.9019 20.0956 19.2254 20.9977 19.2254V18.2254C19.586 18.2254 18.4016 19.2847 18.2424 20.688L19.2361 20.8008ZM20.9977 19.2254C21.0648 19.2254 21.1328 19.2293 21.1996 19.2369L21.3133 18.2434C21.2084 18.2314 21.1025 18.2254 20.9977 18.2254V19.2254ZM21.2001 19.237C22.1723 19.3472 22.8741 20.2287 22.7639 21.201L23.7575 21.3137C23.93 19.7927 22.8338 18.4158 21.3128 18.2433L21.2001 19.237ZM27.5744 25.2837C28.3455 27.2679 28.8293 29.0741 28.9219 30.4845C29.0168 31.9318 28.6934 32.7646 28.1097 33.1074L28.6161 33.9697C29.7248 33.3186 30.0194 31.9387 29.9197 30.4191C29.8176 28.8626 29.294 26.9478 28.5065 24.9215L27.5744 25.2837ZM28.1096 33.1075C27.9053 33.2275 27.6648 33.2931 27.3844 33.2931V34.2931C27.8271 34.2931 28.2452 34.1876 28.6162 33.9697L28.1096 33.1075ZM27.3844 33.2931C26.7155 33.2931 25.8419 32.9007 24.8171 32.1134C23.8091 31.3391 22.7251 30.2378 21.6478 28.9477L20.8802 29.5887C21.9839 30.9102 23.1206 32.0712 24.2079 32.9065C25.2782 33.7287 26.3744 34.293 27.3843 34.2931L27.3844 33.2931ZM20.8606 28.9728C19.8384 30.3688 18.798 31.5628 17.8181 32.4024C16.8201 33.2575 15.9636 33.6767 15.2998 33.6767V34.6767C16.3358 34.6767 17.4269 34.0545 18.4688 33.1617C19.5288 32.2535 20.6206 30.9932 21.6674 29.5636L20.8606 28.9728ZM15.2998 33.6767C15.0656 33.6767 14.8564 33.6267 14.6722 33.5338L14.2218 34.4267C14.5543 34.5943 14.919 34.6767 15.2998 34.6767V33.6767ZM14.6724 33.5339C14.0399 33.2146 13.6599 32.3401 13.6981 30.7761C13.7351 29.257 14.1679 27.293 14.8895 25.143L13.9414 24.8248C13.2056 27.0173 12.7389 29.0894 12.6984 30.7517C12.6589 32.3692 13.0235 33.8216 14.2216 34.4266L14.6724 33.5339ZM14.4949 24.4903C13.26 24.2916 12.1217 24.0428 11.1175 23.7485L10.8363 24.7082C11.8883 25.0165 13.0687 25.2737 14.336 25.4776L14.4949 24.4903ZM11.1175 23.7485C9.6343 23.314 8.56709 22.8239 7.88313 22.3013C7.20639 21.7841 6.95403 21.2773 6.96159 20.7855L5.96171 20.7701C5.94767 21.6836 6.44408 22.4601 7.27592 23.0958C8.10056 23.726 9.30179 24.2586 10.8363 24.7082L11.1175 23.7485ZM6.96159 20.7854C6.97225 20.0895 7.5539 19.3937 8.87072 18.7657C10.1537 18.1539 11.9639 17.6946 14.0314 17.3936L13.8873 16.4041C11.7774 16.7112 9.8541 17.1888 8.44026 17.8631C7.06027 18.5212 5.98177 19.4608 5.96171 20.7701L6.96159 20.7854ZM14.4254 16.7178C13.6544 14.7336 13.1706 12.9275 13.0781 11.517C12.9831 10.0697 13.3065 9.23695 13.8902 8.89416L13.3838 8.03186C12.2752 8.68293 11.9805 10.0629 12.0802 11.5825C12.1823 13.1389 12.7059 15.0538 13.4933 17.08L14.4254 16.7178ZM13.8903 8.89411C14.0946 8.77406 14.3352 8.70845 14.6157 8.70845V7.70845C14.1728 7.70845 13.7547 7.81395 13.3837 8.03191L13.8903 8.89411ZM14.6157 8.70845C15.2846 8.70845 16.1581 9.10075 17.183 9.88802C18.1909 10.6623 19.2749 11.7637 20.3523 13.0538L21.1198 12.4127C20.0162 11.0912 18.8794 9.9302 17.7922 9.095C16.7218 8.27276 15.6257 7.70845 14.6157 7.70845V8.70845ZM21.1395 13.0286C22.1617 11.6326 23.2021 10.4387 24.182 9.59906C25.1799 8.74395 26.0365 8.32471 26.7003 8.32471V7.32471C25.6642 7.32471 24.5732 7.94693 23.5313 8.8397C22.4713 9.74796 21.3795 11.0083 20.3327 12.4379L21.1395 13.0286ZM26.7003 8.32471C26.9344 8.32471 27.1435 8.37468 27.3278 8.46764L27.7781 7.57477C27.4457 7.40714 27.0811 7.32471 26.7003 7.32471V8.32471ZM27.3276 8.46754C27.9601 8.78688 28.34 9.66137 28.3019 11.2254C28.2649 12.7445 27.8321 14.7084 27.1105 16.8584L28.0585 17.1766C28.7944 14.9841 29.2611 12.9121 29.3016 11.2497C29.341 9.63225 28.9765 8.17982 27.7783 7.57487L27.3276 8.46754ZM27.5051 17.5112C28.7399 17.7098 29.8783 17.9586 30.8824 18.2529L31.1636 17.2933C30.1116 16.985 28.9313 16.7277 27.6639 16.5239L27.5051 17.5112ZM30.8824 18.2529C32.3656 18.6875 33.4329 19.1775 34.1168 19.7002C34.7936 20.2174 35.0459 20.7241 35.0384 21.216L36.0382 21.2313C36.0523 20.3178 35.5559 19.5414 34.724 18.9056C33.8994 18.2754 32.6982 17.7429 31.1636 17.2932L30.8824 18.2529ZM35.0384 21.216C35.0276 21.9119 34.4459 22.6077 33.1291 23.2357C31.8461 23.8476 30.0359 24.3068 27.9685 24.6078L28.1125 25.5974C30.2224 25.2902 32.1457 24.8126 33.5596 24.1383C34.9396 23.4802 36.0181 22.5407 36.0382 21.2314L35.0384 21.216ZM21.2455 14.168C21.9049 15.0228 22.5486 15.9291 23.1568 16.8509L23.9915 16.3002C23.3708 15.3595 22.7129 14.4331 22.0373 13.5572L21.2455 14.168ZM23.5417 17.0745C24.4245 17.132 25.2838 17.2123 26.111 17.3144L26.2335 16.322C25.3861 16.2174 24.5076 16.1353 23.6066 16.0766L23.5417 17.0745ZM26.6452 16.9805C27.0741 15.7308 27.4086 14.5376 27.6275 13.4452L26.647 13.2488C26.4386 14.2886 26.1173 15.4382 25.6994 16.6559L26.6452 16.9805ZM27.6275 13.4453C27.9184 11.9941 27.9604 10.9614 27.8693 10.2473C27.8237 9.89013 27.743 9.59722 27.632 9.36731C27.5248 9.14517 27.3682 8.9393 27.1461 8.82721L26.6955 9.7199C26.6476 9.69575 26.6764 9.68781 26.7314 9.80192C26.7827 9.90824 26.8411 10.0899 26.8773 10.3738C26.9498 10.9421 26.9258 11.8582 26.647 13.2487L27.6275 13.4453ZM27.1465 8.82736C26.9988 8.75267 26.8449 8.72755 26.7003 8.72755V9.72755C26.7153 9.72755 26.7204 9.72886 26.7182 9.72841C26.7154 9.72783 26.7068 9.72561 26.6952 9.71974L27.1465 8.82736ZM26.7004 8.72755C26.3191 8.7275 25.9175 8.88024 25.5279 9.103C25.1296 9.33072 24.6977 9.65832 24.2444 10.0686C23.3371 10.8898 22.3046 12.0783 21.235 13.5714L22.0479 14.1538C23.0905 12.6983 24.0768 11.5692 24.9155 10.81C25.3353 10.4301 25.7083 10.1518 26.0242 9.97114C26.3488 9.78556 26.5709 9.72753 26.7003 9.72755L26.7004 8.72755ZM24.5946 22.8156C24.4266 23.1484 24.2528 23.4828 24.0738 23.8174L24.9556 24.289C25.1383 23.9475 25.3157 23.6062 25.4873 23.2663L24.5946 22.8156ZM24.5431 24.5524C25.0779 24.522 25.5909 24.4831 26.0823 24.4371L25.989 23.4415C25.5099 23.4863 25.0091 23.5243 24.4864 23.554L24.5431 24.5524ZM26.4921 23.7352C26.2704 23.2394 26.0335 22.7366 25.7822 22.2288L24.886 22.6724C25.1317 23.1689 25.363 23.6599 25.5792 24.1434L26.4921 23.7352ZM24.8849 22.231C24.7892 22.4267 24.6926 22.6217 24.5946 22.8156L25.4873 23.2663C25.5874 23.0681 25.686 22.8692 25.7833 22.6703L24.8849 22.231ZM24.9627 20.6505C24.6951 20.1573 24.4166 19.6618 24.1251 19.1654L23.2628 19.672C23.548 20.1574 23.821 20.6431 24.0838 21.1275L24.9627 20.6505ZM24.1251 19.1655C23.821 18.6475 23.5151 18.1489 23.2096 17.6671L22.3651 18.2027C22.6651 18.6758 22.965 19.1646 23.2628 19.6719L24.1251 19.1655ZM22.8124 17.4356C22.2349 17.4065 21.649 17.3861 21.0555 17.3771L21.0402 18.3769C21.6209 18.3858 22.195 18.4058 22.7622 18.4343L22.8124 17.4356ZM21.0555 17.3771C20.7955 17.3731 20.5367 17.3711 20.28 17.3711V18.3711C20.5315 18.3711 20.7852 18.3731 21.0402 18.3769L21.0555 17.3771ZM20.28 17.3711C19.8764 17.3711 19.4863 17.3768 19.1037 17.3854L19.1263 18.3852C19.5034 18.3767 19.8858 18.3711 20.28 18.3711V17.3711ZM18.6778 17.6427C18.3707 18.1961 18.0657 18.7713 17.7647 19.3674L18.6574 19.8181C18.9525 19.2336 19.2514 18.6699 19.5522 18.1279L18.6778 17.6427ZM17.7647 19.3674C17.5054 19.8811 17.2588 20.3934 17.023 20.9024L17.9304 21.3227C18.1619 20.8228 18.4037 20.3207 18.6574 19.8181L17.7647 19.3674ZM17.0372 21.351C17.3048 21.8442 17.5833 22.3398 17.8749 22.8361L18.7371 22.3296C18.4519 21.8441 18.179 21.3585 17.9161 20.8741L17.0372 21.351ZM17.8748 22.836C18.179 23.3541 18.4848 23.8527 18.7904 24.3345L19.6349 23.7988C19.3348 23.3258 19.035 22.837 18.7372 22.3297L17.8748 22.836ZM19.1875 24.566C19.7651 24.595 20.3509 24.6154 20.9444 24.6245L20.9597 23.6246C20.379 23.6158 19.8049 23.5958 19.2377 23.5673L19.1875 24.566ZM20.9445 24.6245C21.2045 24.6285 21.4634 24.6305 21.72 24.6305V23.6305C21.4685 23.6305 21.2147 23.6285 20.9597 23.6246L20.9445 24.6245ZM21.72 24.6305C22.1235 24.6305 22.5137 24.6248 22.8962 24.6162L22.8737 23.6164C22.4966 23.6249 22.1142 23.6305 21.72 23.6305V24.6305ZM23.3221 24.3589C23.6292 23.8055 23.9343 23.2303 24.2352 22.6342L23.3426 22.1835C23.0474 22.768 22.7485 23.3317 22.4478 23.8737L23.3221 24.3589ZM24.2352 22.6342C24.4946 22.1205 24.7412 21.6082 24.977 21.0991L24.0696 20.6789C23.838 21.1788 23.5963 21.6809 23.3425 22.1835L24.2352 22.6342ZM21.7203 25.0332C21.4616 25.0332 21.2005 25.0312 20.9383 25.0272L20.9229 26.0271C21.1904 26.0312 21.4566 26.0332 21.7203 26.0332V25.0332ZM20.9383 25.0272C20.6848 25.0233 20.4322 25.0172 20.1801 25.0096L20.1498 26.0091C20.406 26.0169 20.6636 26.0231 20.923 26.0271L20.9383 25.0272ZM19.7529 25.7925C20.0994 26.2967 20.4444 26.7767 20.786 27.2318L21.5858 26.6315C21.2527 26.1878 20.9158 25.7192 20.577 25.2261L19.7529 25.7925ZM21.6037 27.2063C21.8997 26.7561 22.1972 26.2835 22.4945 25.7896L21.6378 25.2739C21.3471 25.7567 21.0567 26.218 20.7681 26.657L21.6037 27.2063ZM22.0625 25.0318C21.9478 25.0326 21.8338 25.0332 21.7203 25.0332V26.0332C21.837 26.0332 21.9536 26.0326 22.0698 26.0318L22.0625 25.0318ZM16.3051 22.5297C16.1476 22.9064 15.9966 23.2808 15.8536 23.6514L16.7866 24.0112C16.9259 23.6502 17.0733 23.2846 17.2277 22.9155L16.3051 22.5297ZM16.263 24.328C16.6509 24.3726 17.0458 24.4121 17.4452 24.4471L17.5325 23.4509C17.1409 23.4166 16.7551 23.378 16.3772 23.3346L16.263 24.328ZM17.9159 23.6888C17.7837 23.4719 17.654 23.2555 17.5275 23.04L16.6651 23.5463C16.7947 23.767 16.9272 23.9881 17.0619 24.2091L17.9159 23.6888ZM17.5276 23.0403C17.4176 22.8525 17.3086 22.6641 17.2008 22.4749L16.3321 22.9702C16.4419 23.1629 16.5529 23.3548 16.6649 23.546L17.5276 23.0403ZM17.4053 19.186C17.5734 18.8532 17.7472 18.5188 17.9261 18.1842L17.0443 17.7126C16.8617 18.054 16.6843 18.3954 16.5127 18.7352L17.4053 19.186ZM17.4569 17.4492C16.9221 17.4796 16.4091 17.5184 15.9177 17.5645L16.0109 18.5601C16.4901 18.5152 16.9909 18.4773 17.5136 18.4476L17.4569 17.4492ZM15.5078 18.2664C15.7295 18.7622 15.9664 19.265 16.2178 19.7727L17.1139 19.329C16.8682 18.8327 16.6369 18.3417 16.4207 17.8582L15.5078 18.2664ZM17.1151 19.7703C17.2105 19.5751 17.3073 19.3802 17.4054 19.1859L16.5126 18.7354C16.4126 18.9334 16.3139 19.1321 16.2166 19.3313L17.1151 19.7703ZM20.28 16.9686C20.5386 16.9686 20.7995 16.9705 21.0616 16.9745L21.077 15.9746C20.8096 15.9705 20.5436 15.9686 20.28 15.9686V16.9686ZM21.0617 16.9745C21.3151 16.9784 21.5677 16.9845 21.8198 16.9922L21.8502 15.9926C21.594 15.9849 21.3363 15.9786 21.077 15.9746L21.0617 16.9745ZM22.2471 16.2092C21.9006 15.705 21.5556 15.225 21.214 14.7698L20.4141 15.37C20.7472 15.8139 21.0841 16.2826 21.4229 16.7756L22.2471 16.2092ZM20.3963 14.7953C20.1002 15.2455 19.8028 15.718 19.5054 16.2119L20.362 16.7278C20.6528 16.2449 20.9433 15.7835 21.2319 15.3446L20.3963 14.7953ZM19.9367 16.9698C20.052 16.9691 20.1662 16.9686 20.28 16.9686V15.9686C20.1631 15.9686 20.0465 15.9691 19.9306 15.9698L19.9367 16.9698ZM25.6947 19.4721C25.8522 19.0953 26.0032 18.7209 26.1462 18.3504L25.2132 17.9905C25.0739 18.3515 24.9265 18.7171 24.7721 19.0862L25.6947 19.4721ZM25.7368 17.6737C25.3489 17.6291 24.9541 17.5896 24.5546 17.5547L24.4673 18.5508C24.8589 18.5851 25.2447 18.6237 25.6226 18.6671L25.7368 17.6737ZM24.0839 18.3129C24.2161 18.5298 24.3458 18.7462 24.4721 18.9615L25.3347 18.4556C25.2051 18.2348 25.0726 18.0136 24.9379 17.7926L24.0839 18.3129ZM24.4724 18.9621C24.5824 19.1492 24.6912 19.3375 24.7989 19.5266L25.6679 19.0317C25.5582 18.839 25.447 18.6467 25.3344 18.4551L24.4724 18.9621ZM15.4477 17.2163C16.3789 17.1173 17.3402 17.0485 18.3074 17.009L18.2665 16.0098C17.2793 16.0502 16.2964 16.1205 15.342 16.2218L15.4477 17.2163ZM18.7196 16.76C19.2301 15.8787 19.7691 15.0131 20.3234 14.1909L19.4943 13.6319C18.9263 14.4743 18.3752 15.3593 17.8543 16.2588L18.7196 16.76ZM20.2963 13.5954C19.1574 12.199 18.0739 11.0963 17.1286 10.3374C16.6561 9.95816 16.209 9.6574 15.7989 9.44934C15.3957 9.24481 14.9918 9.11101 14.6157 9.11101V10.111C14.7684 10.111 15.0094 10.1701 15.3465 10.3411C15.6766 10.5086 16.0651 10.766 16.5026 11.1172C17.3772 11.8193 18.4116 12.8668 19.5214 14.2274L20.2963 13.5954ZM14.6157 9.11101C14.4461 9.11101 14.2635 9.14204 14.0946 9.24099L14.6 10.1039C14.5937 10.1076 14.5882 10.1101 14.584 10.1117C14.58 10.1133 14.5778 10.1137 14.5782 10.1136C14.5794 10.1134 14.5906 10.111 14.6157 10.111V9.11101ZM14.0941 9.2413C13.8796 9.36728 13.7363 9.58271 13.6435 9.81118C13.5473 10.0477 13.4853 10.3451 13.4625 10.7045C13.4169 11.4229 13.5243 12.4509 13.9066 13.8807L14.8727 13.6223C14.5063 12.2523 14.4242 11.3396 14.4605 10.7678C14.4786 10.4821 14.5254 10.2971 14.5699 10.1877C14.6176 10.0703 14.6467 10.0764 14.6005 10.1036L14.0941 9.2413ZM13.9066 13.8807C14.1596 14.8267 14.5063 15.8445 14.9306 16.9048L15.8591 16.5333C15.4464 15.5021 15.1134 14.5226 14.8727 13.6224L13.9066 13.8807ZM15.3627 23.8161C15.667 23.0084 16.0049 22.1871 16.3706 21.3657L15.457 20.959C15.0838 21.7974 14.7384 22.6368 14.4269 23.4636L15.3627 23.8161ZM16.3568 20.9305C15.8476 19.9577 15.3794 18.9829 14.9655 18.0296L14.0482 18.4279C14.4725 19.4051 14.9513 20.4017 15.4708 21.3942L16.3568 20.9305ZM14.4399 17.7333C12.2081 18.0352 10.5038 18.4948 9.34184 18.9898C8.76301 19.2364 8.29872 19.5002 7.96915 19.7722C7.66257 20.0253 7.3706 20.3703 7.36413 20.7917L8.36402 20.8071C8.36344 20.8448 8.35407 20.7512 8.60574 20.5434C8.83443 20.3546 9.20407 20.1355 9.73377 19.9098C10.7889 19.4603 12.4 19.0183 14.5739 18.7243L14.4399 17.7333ZM7.36413 20.7917C7.36029 21.0404 7.46989 21.2748 7.61687 21.4729C7.76899 21.6779 7.99092 21.8854 8.28614 22.0916C8.87626 22.5038 9.8104 22.9462 11.2307 23.3624L11.5119 22.4028C10.151 22.004 9.32846 21.5999 8.85877 21.2718C8.62408 21.1079 8.49032 20.9718 8.41997 20.877C8.34448 20.7753 8.36484 20.7535 8.36401 20.8071L7.36413 20.7917ZM11.2308 23.3624C12.3002 23.6757 13.5126 23.9336 14.819 24.1341L14.9707 23.1456C13.6978 22.9503 12.53 22.701 11.5119 22.4028L11.2308 23.3624ZM20.7544 27.8338C20.095 26.9789 19.4514 26.0727 18.8431 25.1508L18.0084 25.7015C18.6291 26.6422 19.287 27.5686 19.9626 28.4445L20.7544 27.8338ZM18.4583 24.9272C17.5755 24.8697 16.7162 24.7894 15.8889 24.6873L15.7664 25.6797C16.6138 25.7844 17.4923 25.8664 18.3933 25.9251L18.4583 24.9272ZM15.3548 25.0212C14.9258 26.2709 14.5913 27.4641 14.3725 28.5565L15.353 28.7529C15.5613 27.7132 15.8827 26.5635 16.3006 25.3458L15.3548 25.0212ZM14.3725 28.5564C14.0815 30.0076 14.0396 31.0404 14.1306 31.7544C14.1762 32.1116 14.257 32.4045 14.3679 32.6344C14.4751 32.8565 14.6318 33.0624 14.8538 33.1745L15.3045 32.2818C15.3523 32.306 15.3236 32.3139 15.2685 32.1998C15.2172 32.0935 15.1588 31.9118 15.1226 31.6279C15.0501 31.0596 15.0742 30.1435 15.353 28.753L14.3725 28.5564ZM14.8535 33.1744C15.0012 33.2491 15.155 33.2742 15.2996 33.2742V32.2742C15.2846 32.2742 15.2796 32.2729 15.2818 32.2733C15.2845 32.2739 15.2932 32.2761 15.3048 32.282L14.8535 33.1744ZM15.2995 33.2742C15.6808 33.2743 16.0824 33.1216 16.4721 32.8988C16.8704 32.6711 17.3022 32.3435 17.7555 31.9332C18.6628 31.112 19.6954 29.9235 20.765 28.4303L19.952 27.848C18.9094 29.3035 17.9232 30.4327 17.0844 31.1918C16.6647 31.5718 16.2917 31.8501 15.9758 32.0307C15.6512 32.2162 15.4291 32.2742 15.2998 32.2742L15.2995 33.2742ZM26.5523 24.7853C25.621 24.8842 24.6598 24.9531 23.6926 24.9926L23.7335 25.9918C24.7206 25.9514 25.7036 25.8811 26.6579 25.7797L26.5523 24.7853ZM23.2804 25.2416C22.7699 26.1228 22.2308 26.9885 21.6765 27.8107L22.5057 28.3697C23.0737 27.5273 23.6247 26.6421 24.1457 25.7429L23.2804 25.2416ZM21.7036 28.4062C22.8426 29.8026 23.926 30.9053 24.8714 31.6642C25.3438 32.0434 25.7909 32.3442 26.201 32.5523C26.6042 32.7568 27.0081 32.8907 27.3842 32.8907L27.3843 31.8907C27.2316 31.8907 26.9906 31.8315 26.6535 31.6605C26.3233 31.493 25.9349 31.2356 25.4974 30.8844C24.6227 30.1822 23.5884 29.1348 22.4786 27.7742L21.7036 28.4062ZM27.3842 32.8907C27.5538 32.8907 27.7363 32.8597 27.9052 32.7607L27.3998 31.8978C27.4061 31.8941 27.4116 31.8916 27.4157 31.89C27.4198 31.8885 27.4219 31.888 27.4215 31.8881C27.4204 31.8884 27.4092 31.8907 27.3842 31.8907V32.8907ZM27.9058 32.7604C28.1202 32.6344 28.2635 32.419 28.3563 32.1905C28.4525 31.9541 28.5145 31.6566 28.5373 31.2972C28.5829 30.5788 28.4755 29.5508 28.0932 28.121L27.1271 28.3794C27.4935 29.7494 27.5756 30.6621 27.5393 31.2339C27.5212 31.5196 27.4744 31.7046 27.4299 31.814C27.3822 31.9314 27.3531 31.9253 27.3993 31.8981L27.9058 32.7604ZM28.0932 28.1211C27.8404 27.175 27.4935 26.1571 27.0693 25.0968L26.1409 25.4683C26.5534 26.4995 26.8866 27.4791 27.1271 28.3793L28.0932 28.1211ZM34.6357 21.2099C34.6395 20.9612 34.5299 20.7268 34.3829 20.5287C34.2308 20.3237 34.0089 20.1161 33.7137 19.9099C33.1235 19.4977 32.1894 19.0554 30.7691 18.6392L30.4879 19.5988C31.8488 19.9976 32.6713 20.4017 33.141 20.7298C33.3757 20.8937 33.5095 21.0297 33.5798 21.1246C33.6553 21.2263 33.635 21.248 33.6358 21.1945L34.6357 21.2099ZM30.7691 18.6391C29.6997 18.3259 28.4874 18.0678 27.1809 17.8675L27.0293 18.856C28.3022 19.0511 29.4699 19.3006 30.4879 19.5988L30.7691 18.6391ZM26.6372 18.1855C26.333 18.9932 25.995 19.8145 25.6294 20.6359L26.5429 21.0426C26.9161 20.2042 27.2615 19.3648 27.573 18.538L26.6372 18.1855ZM25.6432 21.0711C26.1523 22.0439 26.6205 23.0187 27.0344 23.9719L27.9517 23.5737C27.5274 22.5965 27.0486 21.5998 26.5291 20.6074L25.6432 21.0711ZM27.5601 24.2683C29.7917 23.9665 31.496 23.5069 32.658 23.0119C33.2368 22.7653 33.7011 22.5015 34.0307 22.2294C34.3373 21.9763 34.6292 21.6313 34.6357 21.2099L33.6358 21.1945C33.6364 21.1569 33.6457 21.2505 33.3941 21.4583C33.1654 21.647 32.7957 21.8662 32.2661 22.0919C31.211 22.5414 29.5998 22.9833 27.4261 23.2773L27.5601 24.2683Z" fill="#203864" mask="url(#path-2-inside-1_1_499)"/>
</g>
<defs>
<clipPath id="clip0_1_499">
<rect width="29.0769" height="29.0769" fill="white" transform="translate(6.46143 6.46143)"/>
</clipPath>
</defs>
</svg>
